<?xml version="1.0" encoding="UTF-8" standalone="no"?>
<!-- Creator: CorelDRAW X6 -->

<svg
   xmlns:dc="http://purl.org/dc/elements/1.1/"
   xmlns:cc="http://creativecommons.org/ns#"
   xmlns:rdf="http://www.w3.org/1999/02/22-rdf-syntax-ns#"
   xmlns:svg="http://www.w3.org/2000/svg"
   xmlns="http://www.w3.org/2000/svg"
   xmlns:sodipodi="http://sodipodi.sourceforge.net/DTD/sodipodi-0.dtd"
   xmlns:inkscape="http://www.inkscape.org/namespaces/inkscape"
   xml:space="preserve"
   width="100"
   height="100"
   version="1.1"
   style="clip-rule:evenodd;fill-rule:evenodd;image-rendering:optimizeQuality;shape-rendering:geometricPrecision;text-rendering:geometricPrecision"
   viewBox="0 0 1041.7079 1041.7019"
   id="svg126"
   sodipodi:docname="logo_tut.svg"
   inkscape:version="0.92.4 (5da689c313, 2019-01-14)"><metadata
   id="metadata130"><rdf:RDF><cc:Work
       rdf:about=""><dc:format>image/svg+xml</dc:format><dc:type
         rdf:resource="http://purl.org/dc/dcmitype/StillImage" /><dc:title></dc:title></cc:Work></rdf:RDF></metadata><sodipodi:namedview
   pagecolor="#ffffff"
   bordercolor="#666666"
   borderopacity="1"
   objecttolerance="10"
   gridtolerance="10"
   guidetolerance="10"
   inkscape:pageopacity="0"
   inkscape:pageshadow="2"
   inkscape:window-width="1920"
   inkscape:window-height="986"
   id="namedview128"
   showgrid="false"
   units="px"
   inkscape:zoom="1.6820155"
   inkscape:cx="199.04373"
   inkscape:cy="110.34718"
   inkscape:window-x="-11"
   inkscape:window-y="-11"
   inkscape:window-maximized="1"
   inkscape:current-layer="svg126" />
 <defs
   id="defs4">
  <style
   type="text/css"
   id="style2">
   <![CDATA[
    .fil0 {fill:none}
    .fil2 {fill:#0095D8}
    .fil1 {fill:#332C2B}
    .fil5 {fill:#E72E31}
    .fil3 {fill:#FEFEFE}
    .fil4 {fill:#212020;fill-rule:nonzero}
   ]]>
  </style>
 
  
  
 
   
   
  </defs>
 <rect
   class="fil0"
   width="5827"
   height="4134"
   id="rect7"
   x="0"
   y="-3092.3162"
   style="fill:none" /><g
   id="g122"
   transform="matrix(0.26419099,0,0,0.26461644,-248.60372,-26.467652)">
    <path
   class="fil1"
   d="m 4884,1545 c 2,837 -277,1598 -743,2289 l -9,13 -15,5 c -796,261 -1606,231 -2407,0 l -15,-4 -9,-12 C 1192,3160 971,2380 942,1547 l -1,-15 9,-12 C 1441,842 2114,390 2897,105 l 14,-5 15,5 c 797,257 1435,757 1947,1414 l 9,12 v 15 z"
   id="path9"
   inkscape:connector-curvature="0"
   style="fill:#332c2b" />
    <path
   class="fil2"
   d="m 2914,146 c 749,242 1388,711 1926,1399 2,787 -247,1540 -736,2264 -748,245 -1541,241 -2380,0 C 1260,3173 1018,2418 988,1545 1449,907 2093,444 2914,146 Z"
   id="path11"
   inkscape:connector-curvature="0"
   style="fill:#0095d8" />
    <g
   id="g16">
     <path
   class="fil3"
   d="m 2914,3202 c 39,-19 111,-38 151,-57 61,-30 103,-71 147,-119 35,1 50,-5 60,-4 6,0 11,3 17,12 46,62 256,136 441,126 122,-7 262,-77 306,-187 63,-45 84,-126 108,-196 36,-68 75,-99 80,-199 23,-42 42,-91 34,-193 202,-235 1,-493 -148,-705 85,181 146,471 57,523 -72,55 -201,33 -285,-5 -107,-49 -207,-129 -358,-127 -17,3 -35,6 -53,10 -34,8 -68,23 -102,61 -69,76 -37,161 -3,249 31,68 -15,114 -68,125 0,-96 -27,-200 -88,-293 164,-786 290,-1094 378,-1032 -92,-49 -189,-119 -314,-71 -48,-69 -90,-113 -229,-109 -18,-27 -80,-66 -131,-100 -52,35 -113,73 -131,100 -139,-4 -181,40 -229,109 -125,-48 -221,22 -314,71 88,-63 214,245 378,1032 -62,93 -88,197 -88,293 -53,-11 -99,-58 -68,-125 34,-88 65,-173 -3,-249 -34,-38 -69,-52 -102,-61 -18,-4 -36,-7 -53,-10 -151,-2 -251,78 -358,127 -83,38 -212,61 -285,5 -89,-52 -28,-342 57,-523 -149,211 -350,470 -148,705 -8,102 11,152 34,193 4,100 43,131 80,199 24,70 45,151 108,196 45,110 184,180 306,187 184,11 394,-64 441,-126 17,-22 22,-6 78,-7 44,48 87,89 147,119 40,19 112,38 151,57 z"
   id="path13"
   inkscape:connector-curvature="0"
   style="fill:#fefefe" />
     <path
   id="1"
   class="fil4"
   d="m 3061,3135 9,19 v 0 l -4,2 -4,2 -4,2 -4,2 -5,2 -5,2 -5,2 -5,2 -5,2 -5,2 -5,2 -5,2 -5,2 -5,2 -5,2 -5,2 -5,2 -5,2 -5,2 -5,2 -5,2 -5,2 -5,2 -5,2 -5,2 -5,2 -4,2 -4,2 -4,2 -4,2 -4,2 -4,2 -9,-19 4,-2 4,-2 4,-2 4,-2 5,-2 5,-2 5,-2 5,-2 5,-2 5,-2 5,-2 5,-2 5,-2 5,-2 5,-2 5,-2 5,-2 5,-2 5,-2 5,-2 5,-2 5,-2 5,-2 5,-2 5,-2 5,-2 5,-2 4,-2 4,-2 4,-2 4,-2 4,-2 v 0 z m 9,19 z m 143,-139 -1,21 8,-3 -4,5 -4,4 -4,4 -4,4 -4,4 -4,4 -4,4 -4,4 -4,4 -4,4 -4,4 -4,4 -4,4 -4,4 -4,4 -5,4 -5,4 -5,4 -5,4 -5,4 -5,4 -5,4 -5,3 -5,3 -5,3 -5,3 -5,3 -5,3 -5,3 -6,3 -6,3 -6,3 -9,-19 5,-3 5,-3 5,-3 5,-3 5,-3 5,-3 5,-3 5,-3 5,-3 5,-3 5,-3 5,-3 5,-3 4,-4 4,-4 4,-4 4,-4 4,-4 4,-4 4,-4 4,-4 4,-4 4,-4 4,-4 4,-4 4,-4 4,-4 4,-4 4,-4 4,-4 4,-4 4,-4 8,-3 z m -8,3 3,-4 h 5 l -8,3 z m 69,-8 -1,21 v 0 h -1 -1 -1 -1 -1 -1 -1 -1 -1 -1 -1 -1 -2 -2 -2 -2 -2 -2 -2 -2 -2 -2 -2 -2 -3 -3 -3 -3 -3 -3 -3 -3 l 1,-21 h 3 3 3 3 3 3 2 2 2 2 2 2 2 2 2 2 2 2 2 2 2 1 1 1 1 1 1 1 1 1 1 1 v 0 z m 25,16 -17,13 v 0 -1 -1 -1 -1 -1 0 0 0 0 0 0 0 0 0 0 0 0 0 0 0 0 0 0 0 0 0 0 0 0 0 0 0 l 1,-21 h 1 1 1 1 1 1 1 1 1 1 1 1 1 1 1 l 1,1 1,1 1,1 1,1 1,1 1,1 1,1 1,1 1,1 1,1 1,1 1,1 1,1 1,1 1,1 1,1 1,1 v 0 z m 432,122 1,21 v 0 l -18,1 h -18 -18 l -18,-1 -18,-1 -18,-2 -18,-2 -18,-2 -18,-3 -17,-3 -17,-3 -17,-4 -17,-4 -16,-4 -16,-4 -16,-5 -15,-5 -15,-5 -14,-5 -14,-5 -13,-6 -13,-6 -12,-6 -12,-6 -11,-6 -10,-6 -9,-6 -9,-6 -8,-6 -7,-6 -6,-6 -5,-7 17,-13 4,5 5,5 6,5 7,6 8,6 9,6 10,6 10,6 11,6 12,6 12,5 13,5 13,5 14,5 14,5 15,5 15,5 16,4 16,4 16,4 17,4 17,3 17,3 17,3 17,2 17,2 17,1 17,1 17,1 h 17 17 l 17,-1 v 0 z m 301,-185 12,17 4,-5 -5,11 -5,10 -6,10 -6,10 -7,10 -7,9 -8,9 -8,9 -8,8 -9,8 -9,8 -10,8 -10,7 -10,7 -10,7 -11,6 -11,6 -11,6 -11,5 -11,5 -12,5 -12,4 -12,4 -12,4 -12,3 -12,3 -12,3 -12,2 -12,2 -12,2 -12,1 -12,1 -1,-21 11,-1 11,-1 11,-2 11,-2 11,-2 11,-3 11,-3 11,-3 11,-4 11,-4 11,-4 11,-5 11,-5 11,-5 10,-5 10,-6 10,-6 10,-6 10,-7 9,-7 9,-7 9,-7 8,-8 8,-8 7,-8 7,-8 7,-9 6,-9 6,-9 5,-9 5,-9 4,-10 4,-5 z m -4,5 1,-3 2,-2 -4,5 z m 108,-197 19,10 1,-2 -2,7 -2,7 -2,7 -2,7 -2,7 -2,7 -2,7 -2,7 -2,7 -2,7 -3,7 -3,7 -3,7 -3,7 -3,7 -3,7 -3,7 -3,7 -3,6 -4,6 -4,6 -4,6 -4,6 -4,6 -5,6 -5,6 -5,6 -5,5 -5,5 -6,5 -6,5 -6,5 -12,-17 5,-4 5,-4 5,-4 5,-5 5,-5 4,-5 4,-5 4,-5 4,-5 4,-6 4,-6 3,-6 3,-6 3,-6 3,-6 3,-6 3,-6 3,-6 3,-6 3,-7 3,-7 2,-7 2,-7 2,-7 2,-7 2,-7 2,-7 2,-7 2,-7 2,-7 2,-7 2,-7 1,-2 z m -1,2 v -1 -1 l -1,2 z m 80,-201 18,10 1,-5 -1,9 -1,9 -1,9 -1,8 -1,8 -1,8 -2,7 -2,7 -2,7 -2,7 -2,7 -2,6 -3,6 -3,6 -3,6 -3,6 -3,6 -3,5 -3,5 -3,5 -3,5 -3,5 -3,5 -3,5 -3,5 -3,5 -3,5 -3,6 -3,6 -3,6 -3,6 -3,6 -19,-10 4,-6 4,-6 4,-6 3,-6 3,-6 3,-6 3,-5 3,-5 3,-5 3,-5 3,-5 3,-5 3,-5 3,-5 3,-5 3,-5 3,-5 3,-5 2,-5 2,-6 2,-6 2,-6 2,-6 2,-6 2,-7 2,-7 1,-7 1,-7 1,-8 1,-8 1,-9 v -9 l 1,-5 z m -1,5 v -2 l 1,-2 -1,5 z m 37,-200 16,14 3,-8 1,10 v 9 9 9 8 8 8 8 7 l -1,7 -1,7 -1,7 -1,7 -1,6 -1,6 -1,6 -1,6 -1,6 -2,5 -2,5 -2,5 -2,5 -2,5 -2,5 -2,5 -2,5 -2,4 -2,4 -2,4 -2,4 -2,4 -2,4 -18,-10 2,-4 2,-4 2,-4 2,-4 2,-4 2,-4 2,-4 2,-4 2,-4 2,-5 2,-5 2,-5 1,-5 1,-5 1,-5 1,-5 1,-6 1,-6 1,-6 1,-6 1,-6 1,-7 1,-7 v -7 -7 -8 -8 -8 -8 -9 -9 l -1,-9 3,-8 z m -3,8 v -4 l 3,-3 -3,8 z m -128,-710 -19,9 18,-11 14,20 14,20 14,20 15,21 15,21 14,21 14,21 14,22 14,22 13,22 13,22 12,22 11,23 11,23 10,23 9,23 8,23 7,23 5,23 4,23 3,23 1,23 v 23 l -2,23 -4,23 -6,23 -7,23 -9,23 -12,23 -14,23 -16,23 -18,23 -16,-14 17,-22 15,-22 13,-22 11,-22 9,-22 7,-22 5,-22 3,-22 2,-22 v -22 l -1,-22 -3,-22 -4,-22 -5,-22 -6,-22 -8,-22 -9,-22 -9,-22 -10,-22 -11,-22 -12,-22 -12,-22 -13,-22 -13,-22 -14,-21 -14,-21 -14,-21 -14,-21 -14,-21 -14,-20 -14,-20 -14,-20 18,-11 z m 54,536 -13,-17 1,-1 6,-5 6,-6 5,-7 5,-8 4,-10 4,-11 3,-12 2,-13 2,-14 1,-15 v -16 -16 l -1,-17 -1,-18 -2,-18 -2,-19 -3,-19 -3,-19 -4,-20 -4,-20 -5,-20 -5,-20 -6,-20 -6,-20 -6,-20 -7,-20 -7,-19 -7,-19 -7,-19 -7,-18 -8,-18 -8,-17 19,-9 8,17 8,18 8,19 7,19 7,19 7,20 7,20 6,20 6,20 6,20 5,20 5,20 4,20 4,20 4,20 3,19 3,19 2,19 1,18 1,18 v 17 16 l -1,16 -2,15 -3,14 -3,13 -4,12 -5,11 -6,10 -7,9 -8,8 -9,7 1,-1 z m -13,-17 h 1 1 l -1,1 z m -283,13 9,-19 v 0 l 8,3 8,3 8,3 8,3 9,3 9,3 9,3 9,3 9,2 9,2 9,2 9,2 9,1 9,1 9,1 9,1 h 9 9 9 9 l 9,-1 9,-1 9,-1 8,-2 8,-2 8,-2 8,-3 8,-3 7,-3 7,-4 7,-4 6,-5 13,17 -8,5 -8,5 -8,4 -8,4 -9,3 -9,3 -9,3 -9,2 -9,2 -10,1 -10,1 -10,1 h -10 -10 -10 l -10,-1 -10,-1 -10,-1 -10,-1 -10,-2 -10,-2 -10,-2 -10,-2 -10,-2 -9,-3 -9,-3 -9,-3 -9,-3 -9,-3 -9,-3 -8,-4 -8,-4 v 0 z m -352,-127 -4,-21 h 2 14 l 14,1 14,1 14,1 13,2 13,2 13,3 13,3 12,3 12,4 12,4 12,4 11,4 11,5 11,5 11,5 11,5 11,5 11,5 10,5 10,5 10,5 10,5 10,5 10,5 10,5 10,5 10,5 10,5 10,5 10,5 10,5 -9,19 -10,-5 -10,-5 -10,-5 -10,-5 -10,-5 -10,-5 -10,-5 -10,-5 -10,-5 -10,-5 -10,-5 -10,-5 -10,-5 -10,-5 -10,-5 -11,-5 -11,-5 -11,-5 -11,-4 -11,-4 -11,-4 -11,-4 -12,-3 -12,-3 -12,-3 -12,-2 -12,-2 -13,-2 -13,-1 -13,-1 h -13 -14 2 z m -4,-21 h 1 1 z m -48,31 -5,-20 v 0 h 2 2 2 2 2 2 2 2 2 2 2 2 2 2 2 2 2 2 2 2 2 2 2 2 2 2 2 2 2 2 2 2 l 4,21 h -2 -2 -2 -2 -2 -2 -2 -2 -2 -2 -2 -2 -2 -2 -2 -2 -2 -2 -2 -2 -2 -2 -2 -2 -2 -2 -2 -2 -2 -2 -2 -2 v 0 z m -97,58 -16,-14 v 0 l 3,-4 3,-3 3,-3 3,-3 3,-3 3,-3 3,-3 3,-3 3,-3 3,-3 3,-2 3,-2 3,-2 3,-2 3,-2 3,-2 3,-2 3,-2 3,-2 3,-2 3,-1 3,-1 3,-1 3,-1 3,-1 3,-1 3,-1 3,-1 3,-1 3,-1 3,-1 3,-1 5,20 -3,1 -3,1 -3,1 -3,1 -3,1 -3,1 -3,1 -3,1 -3,1 -3,1 -3,1 -3,1 -3,1 -3,1 -3,2 -3,2 -3,2 -3,2 -3,2 -3,2 -3,2 -3,2 -3,2 -3,2 -3,2 -3,3 -3,3 -3,3 -3,3 -3,3 -3,3 -3,3 v 0 z m -2,238 -19,9 v -1 l -3,-8 -3,-8 -3,-8 -3,-8 -3,-8 -3,-8 -3,-8 -3,-8 -2,-8 -2,-8 -2,-8 -2,-8 -2,-8 -1,-8 -1,-8 -1,-8 -1,-8 v -8 -8 l 1,-8 1,-8 1,-8 2,-8 2,-8 3,-8 3,-8 4,-8 4,-8 5,-8 5,-8 6,-8 6,-8 16,14 -6,7 -5,7 -5,7 -4,7 -4,7 -3,7 -3,7 -2,7 -2,7 -2,7 -1,7 -1,7 v 7 7 7 7 l 1,7 1,8 1,8 2,8 2,8 2,8 2,8 2,8 3,8 3,8 3,8 3,8 3,8 3,8 3,8 3,8 v -1 z m -19,9 v 0 0 1 z m -69,121 h 21 l -13,-10 5,-1 4,-1 4,-1 4,-2 4,-2 4,-2 4,-2 4,-2 4,-2 4,-3 3,-3 3,-3 3,-3 3,-3 3,-3 2,-3 2,-4 2,-4 2,-4 1,-4 1,-4 1,-4 1,-4 v -4 -5 -5 l -1,-5 -1,-5 -1,-5 -2,-5 -2,-6 -2,-6 19,-9 3,7 2,7 2,7 2,6 1,6 1,6 v 6 6 l -1,6 -1,6 -1,6 -2,5 -2,5 -2,5 -3,5 -3,5 -3,4 -3,4 -4,4 -4,4 -4,4 -4,3 -4,3 -5,3 -5,3 -5,3 -5,2 -5,2 -5,2 -5,2 -5,1 -5,1 -13,-10 z m 13,10 -13,3 v -13 z m -101,-305 21,4 -2,-8 6,9 6,9 5,9 5,9 5,9 5,9 5,9 4,9 4,9 4,9 4,9 4,9 3,9 3,9 3,9 3,9 3,9 2,9 2,10 2,9 2,9 2,9 2,9 1,9 1,9 1,9 1,9 1,9 1,9 v 9 9 9 h -21 v -9 -9 -9 l -1,-9 -1,-9 -1,-9 -1,-9 -1,-9 -1,-9 -2,-9 -2,-9 -2,-9 -2,-9 -2,-9 -2,-9 -3,-9 -3,-9 -3,-9 -3,-9 -3,-9 -3,-9 -4,-9 -4,-9 -4,-9 -4,-9 -4,-9 -5,-9 -5,-9 -5,-9 -5,-9 -5,-9 -6,-9 -2,-8 z m 2,8 -2,-4 1,-4 2,8 z m 382,-1028 10,-19 -11,18 -6,-4 -6,-2 h -6 l -7,1 -7,3 -8,5 -9,8 -9,10 -10,13 -10,15 -10,18 -11,20 -11,22 -11,25 -11,27 -12,30 -12,32 -12,35 -12,38 -13,40 -13,43 -13,45 -13,48 -13,51 -14,53 -14,56 -14,59 -14,61 -15,64 -15,67 -15,69 -15,72 -21,-4 15,-72 15,-70 15,-67 15,-64 14,-61 14,-59 14,-56 14,-53 13,-51 13,-48 13,-45 13,-43 13,-40 12,-38 12,-35 12,-33 12,-30 12,-28 11,-26 11,-23 11,-21 11,-18 11,-16 11,-14 11,-12 11,-10 11,-7 11,-5 11,-2 h 11 l 11,3 10,6 -11,18 z m -317,-74 17,-12 -12,-4 12,-4 12,-4 12,-3 12,-2 12,-2 11,-1 11,-1 h 11 11 l 11,1 11,1 11,2 10,2 10,3 10,3 10,3 10,4 10,4 10,4 10,4 9,4 9,5 9,5 9,5 9,5 9,5 9,5 9,5 9,5 9,5 9,5 9,5 -10,19 -9,-5 -9,-5 -9,-5 -9,-5 -9,-5 -9,-5 -9,-5 -9,-5 -9,-5 -9,-5 -9,-4 -9,-4 -9,-4 -9,-4 -9,-4 -9,-3 -9,-3 -9,-3 -9,-2 -10,-2 -10,-2 -10,-1 -10,-1 h -10 -10 l -10,1 -10,1 -10,2 -11,2 -11,3 -11,3 -11,4 -12,-4 z m 12,4 -8,3 -5,-7 12,4 z m -242,-113 18,-12 -9,-5 h 13 12 12 l 11,1 11,1 11,1 10,1 10,2 9,2 9,2 9,2 8,3 8,3 7,3 7,3 7,4 7,4 6,4 6,4 6,5 6,5 5,5 5,5 5,5 5,5 5,6 5,6 5,6 5,6 5,6 5,6 5,6 -17,12 -4,-6 -4,-6 -4,-6 -4,-6 -4,-6 -4,-5 -4,-5 -5,-5 -5,-5 -5,-5 -5,-4 -5,-4 -5,-4 -5,-4 -6,-4 -6,-3 -6,-3 -6,-3 -7,-3 -7,-3 -7,-2 -8,-2 -8,-2 -9,-2 -9,-2 -9,-1 -10,-1 -10,-1 -11,-1 h -11 -12 -13 l -9,-5 z m 9,5 h -6 l -3,-5 z m -126,-102 -12,-17 h 12 l 5,3 5,3 5,3 5,3 5,3 5,3 5,3 5,3 5,3 5,3 5,3 5,3 5,3 5,3 5,3 5,3 5,3 4,3 4,3 4,3 4,3 4,3 4,3 4,3 3,3 3,3 3,3 3,3 3,3 3,3 2,3 2,3 -18,12 -1,-2 -2,-2 -2,-2 -2,-2 -3,-3 -3,-3 -3,-3 -3,-3 -3,-3 -4,-3 -4,-3 -4,-3 -4,-3 -4,-3 -4,-3 -4,-3 -5,-3 -5,-3 -5,-3 -5,-3 -5,-3 -5,-3 -5,-3 -5,-3 -5,-3 -5,-3 -5,-3 -5,-3 -5,-3 -5,-3 -5,-3 -5,-3 h 12 z m -12,-17 6,-4 6,4 z m -126,120 1,-21 -9,5 2,-3 2,-3 3,-3 3,-3 3,-3 3,-3 3,-3 3,-3 4,-3 4,-3 4,-3 4,-3 4,-3 4,-3 4,-3 5,-3 5,-3 5,-3 5,-3 5,-3 5,-3 5,-3 5,-3 5,-3 5,-3 5,-3 5,-3 5,-3 5,-3 5,-3 5,-3 5,-3 12,17 -5,3 -5,3 -5,3 -5,3 -5,3 -5,3 -5,3 -5,3 -5,3 -5,3 -5,3 -5,3 -5,3 -5,3 -5,3 -5,3 -4,3 -4,3 -4,3 -4,3 -4,3 -4,3 -4,3 -3,3 -3,3 -3,3 -3,3 -3,3 -2,2 -2,2 -2,2 -1,2 -9,5 z m 9,-5 -3,5 h -6 z m -242,113 8,-20 -12,4 5,-6 5,-6 5,-6 5,-6 5,-6 5,-6 5,-6 5,-5 5,-5 5,-5 5,-5 6,-5 6,-5 6,-4 6,-4 7,-4 7,-4 7,-3 7,-3 8,-3 8,-3 9,-2 9,-2 9,-2 10,-2 10,-1 11,-1 11,-1 11,-1 h 12 12 13 l -1,21 h -13 -12 -11 l -11,1 -10,1 -10,1 -9,1 -9,2 -9,2 -8,2 -8,2 -7,2 -7,3 -7,3 -6,3 -6,3 -6,3 -6,4 -5,4 -5,4 -5,4 -5,4 -5,5 -5,5 -5,5 -5,5 -4,5 -4,6 -4,6 -4,6 -4,6 -4,6 -12,4 z m 12,-4 -5,7 -8,-3 12,-4 z m -328,56 12,17 -11,-18 9,-5 9,-5 9,-5 9,-5 9,-5 9,-5 9,-5 9,-5 9,-5 9,-5 9,-5 9,-4 10,-4 10,-4 10,-4 10,-4 10,-3 10,-3 10,-3 10,-2 10,-2 11,-1 11,-1 h 11 11 l 11,1 11,1 12,2 12,2 12,3 12,4 12,4 -8,20 -11,-4 -11,-3 -11,-3 -11,-2 -10,-2 -10,-1 -10,-1 h -10 -10 l -10,1 -10,1 -10,2 -10,2 -10,2 -9,3 -9,3 -9,3 -9,4 -9,4 -9,4 -9,4 -9,4 -9,5 -9,5 -9,5 -9,5 -9,5 -9,5 -9,5 -9,5 -9,5 -9,5 -11,-18 z m 393,1046 -18,-12 -2,8 -15,-72 -15,-69 -15,-67 -15,-64 -14,-61 -14,-59 -14,-56 -14,-53 -13,-51 -13,-48 -13,-45 -13,-43 -13,-40 -12,-38 -12,-35 -12,-32 -12,-30 -11,-27 -11,-25 -11,-22 -11,-20 -10,-18 -10,-15 -10,-13 -9,-10 -9,-8 -8,-5 -7,-3 -7,-1 h -6 l -6,2 -6,4 -12,-17 10,-6 11,-3 h 11 l 11,2 11,5 11,7 11,10 11,12 11,14 11,16 11,18 11,21 11,23 11,26 12,28 12,30 12,33 12,35 12,38 13,40 13,43 13,45 13,48 14,51 14,53 14,56 14,59 14,61 15,64 15,67 15,70 15,72 -2,8 z m 2,-8 1,4 -2,4 2,-8 z m -101,305 4,-21 -13,10 v -9 -9 -9 l 1,-9 1,-9 1,-9 1,-9 1,-9 1,-9 2,-9 2,-9 2,-9 2,-9 2,-10 2,-10 3,-9 3,-9 3,-9 3,-9 3,-9 4,-9 4,-9 4,-9 4,-9 4,-9 5,-9 5,-9 5,-9 5,-9 5,-9 6,-9 6,-9 18,12 -6,9 -5,9 -5,9 -5,9 -5,9 -5,9 -4,9 -4,9 -4,9 -4,9 -4,9 -3,9 -3,9 -3,9 -3,9 -3,9 -3,9 -2,9 -2,9 -2,9 -2,9 -2,9 -2,9 -1,9 -1,9 -1,9 -1,9 -1,9 -1,9 v 9 9 9 l -13,10 z m 13,-10 v 13 l -13,-3 z m -89,-129 20,8 v 1 l -2,6 -2,6 -2,5 -1,5 -1,5 -1,5 v 5 5 4 l 1,4 1,4 1,4 1,4 2,4 2,4 2,4 2,3 3,3 3,3 3,3 3,3 3,3 4,3 4,2 4,2 4,2 4,2 4,2 4,2 4,1 4,1 5,1 -4,21 -5,-1 -5,-1 -5,-2 -5,-2 -5,-2 -5,-2 -5,-3 -5,-3 -5,-3 -4,-3 -4,-3 -4,-4 -4,-4 -4,-4 -3,-4 -3,-4 -3,-5 -3,-5 -2,-5 -2,-5 -2,-5 -1,-6 -1,-6 -1,-6 v -6 -6 l 1,-6 1,-6 2,-6 2,-7 2,-7 3,-7 v 1 z m 20,8 v 0 0 -1 z m -21,-246 16,-14 v 0 l 6,8 6,8 5,8 5,8 4,8 4,8 3,8 3,8 2,8 2,8 1,8 1,8 1,8 v 8 8 l -1,8 -1,8 -1,8 -1,8 -2,8 -2,8 -2,8 -2,8 -2,8 -3,8 -3,8 -3,8 -3,8 -3,8 -3,8 -3,8 -3,8 -20,-8 3,-8 3,-8 3,-8 3,-8 3,-8 3,-8 3,-8 3,-8 2,-8 2,-8 2,-8 2,-8 2,-8 1,-8 1,-8 1,-7 v -7 -7 -7 -7 l -1,-7 -1,-7 -2,-7 -2,-7 -2,-7 -3,-7 -3,-7 -4,-7 -4,-7 -5,-7 -5,-7 -6,-7 v 0 z m -97,-58 5,-20 v 0 l 3,1 3,1 3,1 3,1 3,1 3,1 3,1 3,1 3,1 3,1 3,1 3,1 3,2 3,2 3,2 3,2 3,2 3,2 3,2 3,2 3,2 3,2 3,3 3,3 3,3 3,3 3,3 3,3 3,3 3,3 3,3 3,4 -16,14 -3,-3 -3,-3 -3,-3 -3,-3 -3,-3 -3,-3 -3,-3 -3,-2 -3,-2 -3,-2 -3,-2 -3,-2 -3,-2 -3,-2 -3,-2 -3,-2 -3,-2 -3,-2 -3,-1 -3,-1 -3,-1 -3,-1 -3,-1 -3,-1 -3,-1 -3,-1 -3,-1 -3,-1 -3,-1 -3,-1 -3,-1 -3,-1 v 0 z m -51,-10 v -21 h 2 2 2 2 2 2 2 2 2 2 2 2 2 2 2 2 2 2 2 2 2 2 2 2 2 2 2 2 2 2 2 2 2 l -5,20 h -2 -2 -2 -2 -2 -2 -2 -2 -2 -2 -2 -2 -2 -2 -2 -2 -2 -2 -2 -2 -2 -2 -2 -2 -2 -2 -2 -2 -2 -2 -2 -2 2 z m 0,-21 h 1 1 z m -354,147 -9,-19 v 0 l 10,-5 10,-5 10,-5 10,-5 10,-5 10,-5 10,-5 10,-5 10,-5 10,-5 10,-5 10,-5 10,-5 11,-5 11,-5 11,-5 11,-5 11,-5 11,-5 11,-4 12,-4 12,-4 12,-4 12,-3 13,-3 13,-3 13,-2 13,-2 14,-1 14,-1 14,-1 h 14 v 21 h -14 -13 l -13,1 -13,1 -13,2 -12,2 -12,2 -12,3 -12,3 -12,3 -11,4 -11,4 -11,4 -11,4 -11,5 -11,5 -11,5 -10,5 -10,5 -10,5 -10,5 -10,5 -10,5 -10,5 -10,5 -10,5 -10,5 -10,5 -10,5 -10,5 -10,5 -10,5 v 0 z m -294,5 11,-18 1,1 6,5 7,4 7,4 7,3 8,3 8,3 8,2 8,2 8,2 9,1 9,1 9,1 h 9 9 9 9 l 9,-1 9,-1 9,-1 9,-1 9,-2 9,-2 9,-2 9,-2 9,-3 9,-3 9,-3 9,-3 8,-3 8,-3 8,-3 8,-3 9,19 -8,4 -8,4 -9,3 -9,3 -9,3 -9,3 -9,3 -10,3 -10,2 -10,2 -10,2 -10,2 -10,2 -10,1 -10,1 -10,1 -10,1 h -10 -10 -10 l -10,-1 -10,-1 -10,-1 -9,-2 -9,-2 -9,-3 -9,-3 -9,-3 -8,-4 -8,-4 -8,-5 -8,-5 1,1 z m 11,-18 h 1 1 l -1,-1 z m 60,-508 -17,-12 18,11 -8,17 -8,18 -7,18 -7,19 -7,19 -7,19 -7,20 -6,20 -6,20 -6,20 -5,20 -5,20 -4,20 -4,20 -3,19 -3,19 -2,19 -2,18 -1,18 -1,17 v 16 16 l 1,15 2,14 2,13 3,12 4,11 4,10 5,8 5,7 6,6 6,5 -11,18 -9,-7 -8,-8 -7,-9 -6,-10 -5,-11 -4,-12 -3,-13 -3,-14 -2,-15 -1,-16 v -16 -17 l 1,-18 1,-18 2,-19 3,-19 3,-19 4,-20 4,-20 4,-20 5,-20 5,-20 6,-20 6,-20 6,-20 7,-20 7,-20 7,-19 7,-19 8,-19 8,-18 8,-17 18,11 z m -146,700 -21,-2 3,8 -18,-23 -16,-23 -14,-23 -12,-23 -9,-23 -7,-23 -6,-23 -4,-23 -2,-23 v -23 l 1,-23 3,-23 4,-23 5,-23 7,-23 8,-23 9,-23 10,-23 11,-23 11,-23 12,-22 13,-22 13,-22 14,-22 14,-22 14,-21 14,-21 15,-21 15,-21 14,-20 14,-20 14,-20 17,12 -14,20 -14,20 -14,20 -14,21 -14,21 -14,21 -14,21 -14,21 -13,22 -13,22 -12,22 -12,22 -11,22 -10,22 -9,22 -9,22 -8,22 -6,22 -5,22 -4,22 -3,22 -1,22 v 22 l 2,22 3,22 5,22 7,22 9,22 11,22 13,22 15,22 17,22 3,8 z m -3,-8 3,3 v 4 l -3,-8 z m 37,200 -21,1 1,5 -2,-4 -2,-4 -2,-4 -2,-4 -2,-4 -2,-4 -2,-5 -2,-5 -2,-5 -2,-5 -2,-5 -2,-5 -2,-5 -2,-5 -1,-6 -1,-6 -1,-6 -1,-6 -1,-6 -1,-7 -1,-7 -1,-7 -1,-7 v -7 -8 -8 -8 -8 -9 -9 -9 l 1,-10 21,2 -1,9 v 9 9 8 8 8 8 7 7 l 1,7 1,7 1,6 1,6 1,6 1,6 1,6 1,5 1,5 1,5 1,5 2,5 2,5 2,5 2,4 2,4 2,4 2,4 2,4 2,4 2,4 2,4 2,4 1,5 z m -1,-5 1,2 v 2 l -1,-5 z m 80,201 -20,7 1,2 -3,-6 -3,-6 -3,-6 -3,-6 -3,-6 -3,-5 -3,-5 -3,-5 -3,-5 -3,-5 -3,-5 -3,-5 -3,-5 -3,-5 -3,-5 -3,-6 -3,-6 -3,-6 -3,-6 -3,-6 -2,-6 -2,-6 -2,-7 -2,-7 -2,-7 -2,-7 -1,-8 -1,-8 -1,-8 -1,-9 -1,-9 -1,-9 21,-1 v 9 l 1,9 1,8 1,8 1,7 1,7 2,7 2,7 2,6 2,6 2,6 2,6 2,6 2,5 3,5 3,5 3,5 3,5 3,5 3,5 3,5 3,5 3,5 3,5 3,5 3,5 3,6 3,6 3,6 3,6 4,6 4,6 1,2 z m -1,-2 v 1 1 l -1,-2 z m 108,197 -19,8 4,5 -6,-5 -6,-5 -6,-5 -5,-5 -5,-5 -5,-6 -5,-6 -5,-6 -4,-6 -4,-6 -4,-6 -4,-6 -4,-6 -3,-6 -3,-7 -3,-7 -3,-7 -3,-7 -3,-7 -3,-7 -3,-7 -3,-7 -2,-7 -2,-7 -2,-7 -2,-7 -2,-7 -2,-7 -2,-7 -2,-7 -2,-7 -2,-7 20,-7 2,7 2,7 2,7 2,7 2,7 2,7 2,7 2,7 2,7 2,7 2,7 3,7 3,7 3,6 3,6 3,6 3,6 3,6 3,6 3,6 3,6 4,6 4,6 4,5 4,5 4,5 4,5 5,5 5,5 5,4 5,4 5,4 4,5 z m -4,-5 2,2 1,3 -4,-5 z m 301,185 -1,21 v 0 l -12,-1 -12,-1 -12,-2 -12,-2 -12,-2 -12,-3 -12,-3 -12,-3 -12,-4 -12,-4 -12,-4 -12,-5 -11,-5 -11,-5 -11,-6 -11,-6 -11,-6 -10,-7 -10,-7 -10,-7 -10,-8 -9,-8 -9,-8 -8,-8 -8,-9 -8,-9 -7,-9 -7,-10 -6,-10 -6,-10 -5,-10 -5,-11 19,-8 4,10 5,9 5,9 6,9 6,9 7,9 7,8 7,8 8,8 8,8 9,7 9,7 9,7 10,7 10,6 10,6 10,6 10,5 11,5 11,5 11,5 11,4 11,4 11,4 11,3 11,3 11,3 11,2 11,2 11,2 11,1 11,1 v 0 z m 432,-122 17,13 v 0 l -5,7 -6,6 -7,6 -8,6 -9,6 -9,6 -10,6 -11,6 -12,6 -12,6 -13,6 -13,6 -14,5 -14,5 -15,5 -15,5 -16,5 -16,4 -16,4 -17,4 -17,4 -17,3 -17,3 -18,3 -18,2 -18,2 -18,2 -18,1 -18,1 h -18 -18 l -18,-1 1,-21 17,1 h 17 17 l 17,-1 17,-1 17,-1 17,-2 17,-2 17,-3 17,-3 17,-3 17,-4 16,-4 16,-4 16,-4 15,-5 15,-5 14,-5 14,-5 13,-5 13,-5 12,-5 12,-6 11,-6 10,-6 10,-6 9,-6 8,-6 7,-6 6,-5 5,-5 4,-5 v 0 z m 94,-8 -16,14 8,3 h -5 -5 -5 -4 -4 -4 -4 -3 -3 -3 -3 -3 -2 -2 -2 -2 -2 -1 -1 -1 -1 -1 -1 -1 -1 -1 -1 l -1,1 -1,1 -1,1 -1,1 -1,2 -17,-13 2,-2 2,-2 2,-2 2,-2 2,-2 2,-1 2,-1 2,-1 2,-1 2,-1 h 2 2 2 2 2 2 2 2 2 2 3 3 3 3 3 3 4 4 4 4 5 5 l 8,3 z m -8,-3 h 5 l 3,4 -8,-3 z m 152,120 -9,19 v 0 l -6,-3 -6,-3 -6,-3 -5,-3 -5,-3 -5,-3 -5,-3 -5,-3 -5,-3 -5,-3 -5,-4 -5,-4 -5,-4 -5,-4 -5,-4 -5,-4 -5,-4 -4,-4 -4,-4 -4,-4 -4,-4 -4,-4 -4,-4 -4,-4 -4,-4 -4,-4 -4,-4 -4,-4 -4,-4 -4,-4 -4,-4 -4,-5 16,-14 4,4 4,4 4,4 4,4 4,4 4,4 4,4 4,4 4,4 4,4 4,4 4,4 4,4 4,4 4,4 4,4 4,4 4,4 4,4 5,3 5,3 5,3 5,3 5,3 5,3 5,3 5,3 5,3 5,3 5,3 5,3 5,3 v 0 z m -9,19 z m 151,38 9,19 h -9 l -4,-2 -4,-2 -4,-2 -4,-2 -4,-2 -4,-2 -5,-2 -5,-2 -5,-2 -5,-2 -5,-2 -5,-2 -5,-2 -5,-2 -5,-2 -5,-2 -5,-2 -5,-2 -5,-2 -5,-2 -5,-2 -5,-2 -5,-2 -5,-2 -5,-2 -5,-2 -5,-2 -5,-2 -4,-2 -4,-2 -4,-2 -4,-2 9,-19 4,2 4,2 4,2 4,2 4,2 5,2 5,2 5,2 5,2 5,2 5,2 5,2 5,2 5,2 5,2 5,2 5,2 5,2 5,2 5,2 5,2 5,2 5,2 5,2 5,2 5,2 5,2 5,2 4,2 4,2 4,2 4,2 h -9 z m 9,19 -5,2 -5,-2 h 9 z"
   inkscape:connector-curvature="0"
   style="fill:#212020;fill-rule:nonzero" />
    </g>
    <g
   id="g20">
     <polygon
   class="fil4"
   points="4190,2418 4178,2422 4166,2425 4154,2429 4143,2432 4133,2434 4123,2437 4113,2439 4104,2441 4095,2442 4087,2444 4079,2445 4072,2446 4064,2447 4058,2448 4051,2448 4045,2448 4038,2449 4033,2449 4027,2449 4021,2449 4016,2448 4011,2448 4006,2448 4001,2447 3997,2447 3992,2446 3987,2446 3990,2425 3994,2426 3999,2426 4003,2426 4008,2427 4012,2427 4017,2427 4022,2428 4027,2428 4032,2428 4038,2428 4043,2427 4049,2427 4056,2427 4062,2426 4069,2425 4076,2424 4084,2423 4092,2422 4100,2420 4109,2418 4118,2416 4128,2414 4138,2411 4149,2408 4160,2405 4172,2402 4184,2398 4197,2394 4211,2390 4225,2385 4240,2380 4255,2375 4262,2394 4247,2400 4232,2405 4217,2410 4203,2414 "
   id="polygon18"
   style="fill:#212020;fill-rule:nonzero" />
    </g>
    <g
   id="g24">
     <polygon
   class="fil4"
   points="1656,2402 1668,2405 1679,2408 1690,2411 1700,2414 1710,2416 1719,2418 1728,2420 1736,2422 1744,2423 1752,2424 1759,2425 1766,2426 1772,2427 1779,2427 1785,2427 1790,2428 1796,2428 1801,2428 1806,2428 1811,2427 1816,2427 1820,2427 1825,2426 1829,2426 1834,2426 1838,2425 1841,2446 1836,2446 1832,2447 1827,2447 1822,2448 1817,2448 1812,2448 1807,2449 1801,2449 1796,2449 1790,2449 1784,2448 1777,2448 1771,2448 1764,2447 1756,2446 1749,2445 1741,2444 1733,2442 1724,2441 1715,2439 1705,2437 1695,2434 1685,2432 1674,2429 1662,2425 1650,2422 1638,2418 1625,2414 1611,2410 1596,2405 1581,2400 1566,2394 1573,2375 1588,2380 1603,2385 1617,2390 1631,2394 1644,2398 "
   id="polygon22"
   style="fill:#212020;fill-rule:nonzero" />
    </g>
    <g
   id="g28">
     <polygon
   class="fil4"
   points="4209,2571 4200,2576 4192,2581 4183,2585 4175,2589 4166,2593 4157,2597 4148,2601 4139,2604 4129,2607 4120,2610 4111,2613 4101,2616 4092,2618 4083,2621 4073,2623 4064,2625 4054,2626 4045,2628 4035,2629 4026,2630 4016,2631 4007,2631 3998,2632 3988,2632 3979,2632 3970,2632 3961,2631 3962,2610 3971,2611 3979,2611 3988,2611 3997,2611 4006,2610 4015,2610 4024,2609 4033,2608 4042,2607 4051,2605 4060,2604 4069,2602 4078,2600 4087,2598 4096,2596 4105,2593 4114,2590 4123,2587 4131,2584 4140,2581 4149,2578 4157,2574 4166,2570 4174,2566 4182,2562 4190,2558 4198,2553 4206,2548 4214,2544 4221,2539 4229,2533 4236,2528 4249,2545 4241,2550 4233,2556 4225,2561 4217,2566 "
   id="polygon26"
   style="fill:#212020;fill-rule:nonzero" />
    </g>
    <g
   id="g32">
     <polygon
   class="fil4"
   points="1638,2558 1646,2562 1654,2566 1662,2570 1671,2574 1679,2578 1688,2581 1697,2584 1706,2587 1714,2590 1723,2593 1732,2596 1741,2598 1750,2600 1759,2602 1768,2604 1777,2605 1786,2607 1795,2608 1804,2609 1813,2610 1822,2610 1831,2611 1840,2611 1849,2611 1857,2611 1866,2610 1867,2631 1858,2632 1849,2632 1840,2632 1830,2632 1821,2631 1812,2631 1802,2630 1793,2629 1783,2628 1774,2626 1764,2625 1755,2623 1745,2621 1736,2618 1727,2616 1717,2613 1708,2610 1699,2607 1690,2604 1680,2601 1671,2597 1662,2593 1654,2589 1645,2585 1636,2581 1628,2576 1619,2571 1611,2566 1603,2561 1595,2556 1587,2550 1580,2545 1592,2528 1600,2533 1607,2539 1614,2544 1622,2548 1630,2553 "
   id="polygon30"
   style="fill:#212020;fill-rule:nonzero" />
    </g>
    <g
   id="g36">
     <polygon
   class="fil4"
   points="4129,2787 4121,2791 4114,2794 4106,2798 4099,2801 4091,2803 4083,2806 4075,2809 4066,2811 4058,2813 4049,2815 4041,2817 4032,2819 4023,2820 4014,2821 4006,2823 3997,2824 3987,2824 3978,2825 3969,2825 3960,2826 3951,2826 3942,2826 3932,2825 3923,2825 3914,2824 3904,2824 3895,2823 3897,2802 3906,2803 3915,2803 3924,2804 3933,2804 3942,2805 3951,2805 3960,2805 3968,2804 3977,2804 3986,2803 3994,2803 4003,2802 4012,2801 4020,2799 4028,2798 4037,2796 4045,2795 4053,2793 4061,2791 4069,2788 4076,2786 4084,2784 4091,2781 4099,2778 4106,2775 4113,2772 4119,2769 4126,2765 4132,2762 4139,2758 4145,2754 4151,2750 4163,2767 4156,2772 4150,2776 4143,2780 4136,2784 "
   id="polygon34"
   style="fill:#212020;fill-rule:nonzero" />
    </g>
    <g
   id="g40">
     <polygon
   class="fil4"
   points="1716,2772 1722,2775 1730,2778 1737,2781 1744,2784 1752,2786 1760,2788 1767,2791 1775,2793 1783,2795 1792,2796 1800,2798 1808,2799 1817,2801 1825,2802 1834,2803 1842,2803 1851,2804 1860,2804 1869,2805 1877,2805 1886,2805 1895,2804 1904,2804 1913,2803 1922,2803 1931,2802 1933,2823 1924,2824 1914,2824 1905,2825 1896,2825 1887,2826 1877,2826 1868,2826 1859,2825 1850,2825 1841,2824 1832,2824 1823,2823 1814,2821 1805,2820 1796,2819 1787,2817 1779,2815 1770,2813 1762,2811 1754,2809 1745,2806 1737,2803 1730,2801 1722,2798 1714,2794 1707,2791 1699,2787 1692,2784 1685,2780 1678,2776 1672,2772 1665,2767 1677,2750 1683,2754 1689,2758 1696,2762 1702,2765 1709,2769 "
   id="polygon38"
   style="fill:#212020;fill-rule:nonzero" />
    </g>
    <g
   id="g44">
     <polygon
   class="fil4"
   points="4027,2970 4019,2973 4011,2975 4003,2977 3995,2979 3987,2980 3979,2982 3971,2984 3963,2985 3955,2987 3947,2988 3939,2989 3931,2990 3923,2991 3914,2992 3906,2992 3898,2993 3890,2993 3881,2994 3873,2994 3865,2994 3857,2993 3848,2993 3840,2992 3832,2992 3823,2991 3815,2990 3807,2989 3810,2968 3818,2969 3826,2970 3833,2971 3841,2971 3849,2972 3857,2972 3865,2973 3873,2973 3881,2972 3889,2972 3897,2972 3905,2971 3913,2971 3921,2970 3928,2969 3936,2968 3944,2967 3952,2966 3960,2964 3967,2963 3975,2962 3983,2960 3991,2958 3998,2956 4006,2954 4013,2952 4021,2950 4028,2948 4036,2946 4043,2943 4050,2941 4058,2939 4064,2958 4057,2961 4049,2963 4042,2966 4034,2968 "
   id="polygon42"
   style="fill:#212020;fill-rule:nonzero" />
    </g>
    <g
   id="g48">
     <polygon
   class="fil4"
   points="1815,2952 1822,2954 1830,2956 1838,2958 1845,2960 1853,2962 1861,2963 1868,2964 1876,2966 1884,2967 1892,2968 1900,2969 1908,2970 1915,2971 1923,2971 1931,2972 1939,2972 1947,2972 1955,2973 1963,2973 1971,2972 1979,2972 1987,2971 1995,2971 2003,2970 2010,2969 2018,2968 2022,2989 2013,2990 2005,2991 1997,2992 1988,2992 1980,2993 1972,2993 1963,2994 1955,2994 1947,2994 1938,2993 1930,2993 1922,2992 1914,2992 1905,2991 1897,2990 1889,2989 1881,2988 1873,2987 1865,2985 1857,2984 1849,2982 1841,2980 1833,2979 1825,2977 1817,2975 1809,2973 1802,2970 1794,2968 1786,2966 1779,2963 1771,2961 1764,2958 1771,2939 1778,2941 1785,2943 1792,2946 1800,2948 1807,2950 "
   id="polygon46"
   style="fill:#212020;fill-rule:nonzero" />
    </g>
    <g
   id="g52">
     <path
   class="fil4"
   d="m 3523,2393 -18,10 -1,-1 -7,-17 -6,-16 -6,-16 -5,-16 -5,-16 -4,-15 -3,-15 -3,-15 -2,-14 -1,-14 v -14 l 1,-13 1,-13 2,-12 3,-12 4,-11 5,-11 6,-10 7,-10 8,-9 9,-8 10,-8 12,-7 13,-6 14,-5 15,-4 16,-4 17,-3 18,-2 19,-1 h 21 l 22,1 -1,21 -21,-1 h -20 l -18,1 -17,2 -16,3 -15,3 -13,4 -12,5 -11,5 -10,6 -9,6 -8,7 -7,7 -6,8 -5,9 -4,9 -4,10 -3,10 -2,11 -1,11 v 12 12 l 1,13 2,13 2,14 3,14 4,15 4,15 5,15 5,16 6,16 7,16 -1,-1 z m -18,10 v -1 -1 l 1,1 z m 86,289 -21,-4 v 1 -7 -7 -7 -7 -7 -7 -7 -7 -7 -7 -7 -8 l -1,-8 -1,-8 -1,-8 -1,-8 -1,-8 -2,-9 -2,-9 -2,-9 -3,-9 -3,-10 -3,-10 -4,-10 -4,-10 -4,-11 -5,-11 -5,-11 -6,-12 -6,-12 -7,-13 -7,-13 18,-10 7,13 7,13 6,13 6,12 5,12 5,12 5,11 4,11 4,11 3,10 3,10 3,10 2,10 2,9 2,9 2,9 1,9 1,9 1,8 1,8 v 8 8 8 8 8 7 7 7 7 7 7 7 1 z m 0,-1 v 1 1 -1 z m -310,339 -9,-19 12,-6 12,-6 12,-6 12,-6 12,-6 12,-6 12,-6 12,-6 12,-7 11,-7 11,-7 11,-7 11,-8 11,-8 10,-8 10,-9 10,-9 10,-9 9,-10 9,-10 9,-11 8,-12 8,-12 8,-13 7,-13 7,-14 6,-15 6,-16 5,-16 5,-17 4,-18 4,-19 21,4 -4,20 -5,19 -5,18 -6,17 -6,16 -7,16 -7,15 -8,14 -8,14 -8,13 -9,12 -9,12 -10,11 -10,11 -10,10 -10,10 -11,9 -11,9 -11,8 -11,8 -12,8 -12,7 -12,7 -12,7 -12,7 -12,6 -12,6 -12,6 -12,6 -12,6 -12,6 -12,6 z"
   id="path50"
   inkscape:connector-curvature="0"
   style="fill:#212020;fill-rule:nonzero" />
    </g>
    <g
   id="g56">
     <path
   class="fil4"
   d="m 2305,2393 -1,1 7,-16 6,-16 5,-16 5,-15 4,-15 4,-15 3,-14 2,-14 2,-13 1,-13 v -12 -12 l -1,-11 -2,-11 -3,-10 -4,-10 -4,-9 -5,-9 -6,-8 -7,-7 -8,-7 -9,-6 -10,-6 -11,-5 -12,-5 -13,-4 -15,-3 -16,-3 -17,-2 -18,-1 h -20 l -21,1 -1,-21 22,-1 h 21 l 19,1 18,2 17,3 16,4 15,4 14,5 13,6 12,7 10,8 9,8 8,9 7,10 6,10 5,11 4,11 3,12 2,12 1,13 1,13 v 14 l -1,14 -2,14 -3,15 -3,15 -4,15 -5,16 -5,16 -6,16 -6,16 -7,17 -1,1 -18,-10 z m 19,9 v 1 1 l 1,-1 z m -87,290 v -1 -7 -7 -7 -7 -7 -7 -7 -8 -8 -8 -8 -8 l 1,-8 1,-8 1,-9 1,-9 2,-9 2,-9 2,-9 2,-10 3,-10 3,-10 3,-10 4,-11 4,-11 5,-11 5,-12 5,-12 6,-12 6,-13 7,-13 7,-13 18,10 -7,13 -7,13 -6,12 -6,12 -5,11 -5,11 -4,11 -4,10 -4,10 -3,10 -3,10 -3,9 -2,9 -2,9 -2,9 -1,8 -1,8 -1,8 -1,8 -1,8 v 8 7 7 7 7 7 7 7 7 7 7 7 -1 l -21,4 z m 0,0 v -1 -1 1 z m 311,338 -12,-6 -12,-6 -12,-6 -12,-6 -12,-6 -12,-6 -12,-6 -12,-7 -12,-7 -12,-7 -12,-7 -12,-8 -11,-8 -11,-8 -11,-9 -11,-9 -11,-10 -10,-10 -10,-11 -10,-11 -9,-12 -9,-12 -8,-13 -8,-14 -8,-14 -7,-15 -7,-16 -6,-16 -6,-17 -5,-18 -5,-19 -4,-20 21,-4 4,19 4,18 5,17 5,16 6,16 6,15 7,14 7,13 8,13 8,12 8,12 9,11 9,10 9,10 10,9 10,9 10,9 10,8 11,8 11,8 11,7 11,7 11,7 12,7 12,6 12,6 12,6 12,6 12,6 12,6 12,6 12,6 -9,19 z"
   id="path54"
   inkscape:connector-curvature="0"
   style="fill:#212020;fill-rule:nonzero" />
    </g>
    <g
   id="g60">
     <path
   class="fil4"
   d="m 2783,1782 21,1 v 0 9 9 l 1,8 1,8 1,7 2,7 2,7 2,6 3,6 3,6 3,6 4,6 4,6 4,6 4,6 5,6 5,6 5,6 5,6 5,6 5,6 5,6 5,7 5,7 5,7 5,8 5,8 5,8 5,9 5,9 5,10 5,10 -19,8 -4,-10 -4,-9 -5,-9 -5,-8 -5,-8 -5,-7 -5,-7 -5,-7 -5,-7 -5,-6 -5,-6 -5,-6 -5,-6 -5,-6 -5,-6 -5,-6 -5,-6 -5,-6 -4,-6 -4,-6 -4,-7 -4,-7 -3,-7 -3,-7 -3,-8 -2,-8 -2,-8 -2,-9 -1,-9 -1,-9 v -10 z m 139,-193 -15,14 h 15 l -5,6 -5,6 -5,6 -5,6 -5,6 -5,5 -5,5 -5,5 -5,5 -5,5 -5,5 -5,5 -5,5 -4,5 -4,5 -4,5 -4,5 -4,5 -4,5 -3,5 -3,5 -3,6 -3,6 -3,6 -2,6 -2,6 -2,6 -2,6 -1,6 -1,6 -1,7 -1,7 -21,-1 1,-8 1,-7 1,-7 2,-7 2,-7 2,-7 2,-7 3,-7 3,-6 3,-6 3,-6 4,-6 4,-6 4,-6 4,-6 4,-6 4,-6 5,-6 5,-6 5,-5 5,-5 5,-5 5,-5 5,-5 5,-5 5,-5 5,-5 5,-5 5,-6 5,-6 5,-6 5,-6 h 15 z m -15,0 8,-8 8,8 h -15 z m 139,193 -21,1 v 0 l -1,-7 -1,-7 -1,-6 -1,-6 -2,-6 -2,-6 -2,-6 -2,-6 -3,-6 -3,-6 -3,-6 -3,-5 -3,-5 -4,-5 -4,-5 -4,-5 -4,-5 -4,-5 -4,-5 -5,-5 -5,-5 -5,-5 -5,-5 -5,-5 -5,-5 -5,-5 -5,-5 -5,-6 -5,-6 -5,-6 -5,-6 -5,-6 15,-14 5,6 5,6 5,6 5,6 5,5 5,5 5,5 5,5 5,5 5,5 5,5 5,5 5,5 5,6 5,6 4,6 4,6 4,6 4,6 4,6 4,6 3,6 3,6 3,6 3,7 2,7 2,7 2,7 2,7 1,7 1,7 1,8 v 0 z m -141,238 19,-8 h -19 l 5,-10 5,-10 5,-9 5,-9 5,-8 5,-8 5,-8 5,-7 5,-7 5,-7 5,-6 5,-6 5,-6 5,-6 5,-6 5,-6 5,-6 4,-6 4,-6 4,-6 4,-6 3,-6 3,-6 3,-6 2,-6 2,-7 2,-7 1,-7 1,-8 1,-8 v -9 -9 l 21,-1 v 10 10 l -1,9 -1,9 -2,9 -2,8 -2,8 -3,8 -3,7 -3,7 -4,7 -4,7 -4,6 -4,6 -5,6 -5,6 -5,6 -5,6 -5,6 -5,6 -5,6 -5,6 -5,6 -5,7 -5,7 -5,7 -5,7 -5,8 -5,8 -5,9 -4,9 -4,10 z"
   id="path58"
   inkscape:connector-curvature="0"
   style="fill:#212020;fill-rule:nonzero" />
    </g>
    <g
   id="g66">
     <path
   class="fil5"
   d="m 2914,2773 c 48,2 74,30 74,73 90,-41 135,-97 142,-173 19,-217 -216,-348 -216,-568 1,220 -235,351 -216,568 7,77 52,133 142,173 0,-43 26,-71 74,-73 z"
   id="path62"
   inkscape:connector-curvature="0"
   style="fill:#e72e31" />
     <path
   id="path64"
   class="fil4"
   d="m 2984,2835 9,19 -15,-10 v -4 -3 -3 -3 l -1,-3 -1,-3 -1,-3 -1,-3 -1,-3 -1,-3 -1,-2 -1,-2 -2,-2 -2,-2 -2,-2 -2,-2 -2,-2 -2,-2 -2,-2 -2,-2 -2,-2 -3,-1 -3,-1 -3,-1 -3,-1 -3,-1 -3,-1 -3,-1 -4,-1 -4,-1 h -4 -4 l 1,-21 h 5 5 l 5,1 4,1 4,1 4,1 4,1 4,1 4,2 4,2 4,2 3,2 3,2 3,2 3,3 3,3 3,3 2,3 2,3 2,3 2,3 2,3 2,4 1,4 1,4 1,4 1,4 1,4 1,4 v 4 4 4 l -15,-10 z m 9,19 -15,7 v -16 l 15,10 z m 127,-184 21,2 v 0 l -1,7 -1,7 -1,7 -2,7 -2,7 -2,7 -2,7 -3,7 -3,7 -3,6 -3,6 -4,6 -4,6 -4,6 -4,6 -5,6 -5,6 -5,5 -5,5 -5,5 -6,5 -6,5 -6,5 -6,5 -7,5 -7,5 -7,4 -7,4 -8,4 -8,4 -8,4 -8,4 -9,-19 8,-4 8,-4 8,-4 7,-4 7,-4 7,-4 6,-4 6,-4 6,-4 6,-5 5,-5 5,-5 5,-5 5,-5 5,-5 4,-5 4,-5 4,-5 4,-5 3,-5 3,-6 3,-6 3,-6 2,-6 2,-6 2,-6 2,-6 2,-6 1,-6 1,-7 1,-7 1,-7 v 0 z m -195,-567 h -21 21 l 1,20 2,19 3,19 4,18 5,18 6,18 7,17 8,17 8,17 9,17 9,17 10,17 10,16 10,16 11,16 11,16 11,16 10,17 10,17 10,17 10,17 9,17 8,17 8,18 7,18 6,18 5,19 4,19 3,19 2,20 v 20 l -1,21 -21,-2 1,-19 v -19 l -2,-19 -3,-18 -4,-18 -5,-18 -6,-17 -7,-17 -7,-17 -8,-17 -9,-17 -9,-16 -10,-16 -10,-16 -10,-16 -11,-16 -11,-16 -11,-16 -10,-17 -10,-17 -10,-17 -10,-17 -9,-17 -9,-18 -8,-18 -7,-18 -6,-19 -5,-19 -4,-20 -3,-20 -2,-21 -1,-21 h 21 z m -216,567 -21,2 v 0 l -1,-21 v -20 l 2,-20 3,-19 4,-19 5,-19 6,-18 7,-18 8,-18 8,-17 9,-17 10,-17 10,-17 10,-17 10,-17 11,-16 11,-16 11,-16 10,-16 10,-16 10,-17 9,-17 9,-17 8,-17 8,-17 7,-17 6,-18 5,-18 4,-18 3,-19 2,-19 1,-20 h 21 l -1,21 -2,21 -3,20 -4,20 -5,19 -6,19 -7,18 -8,18 -9,18 -9,17 -10,17 -10,17 -10,17 -10,17 -11,16 -11,16 -11,16 -10,16 -10,16 -10,16 -9,16 -9,17 -8,17 -7,17 -7,17 -6,17 -5,18 -4,18 -3,18 -2,19 v 19 l 1,19 v 0 z m 121,174 h 21 l -15,10 -8,-4 -8,-4 -8,-4 -8,-4 -7,-4 -7,-4 -7,-5 -7,-5 -6,-5 -6,-5 -6,-5 -6,-5 -5,-5 -5,-5 -5,-5 -5,-6 -5,-6 -4,-6 -4,-6 -4,-6 -4,-6 -3,-6 -3,-6 -3,-7 -3,-7 -2,-7 -2,-7 -2,-7 -2,-7 -1,-7 -1,-7 -1,-7 21,-2 1,7 1,7 1,7 1,6 2,6 2,6 2,6 2,6 2,6 3,6 3,6 3,6 3,5 4,5 4,5 4,5 4,5 4,5 5,5 5,5 5,5 5,5 6,5 6,4 6,4 6,4 7,4 7,4 7,4 8,4 8,4 8,4 -15,10 z m 21,0 v 16 l -15,-7 15,-10 z m 64,-83 -1,21 h 1 -4 -4 l -4,1 -4,1 -3,1 -3,1 -3,1 -3,1 -3,1 -3,1 -3,1 -2,2 -2,2 -2,2 -2,2 -2,2 -2,2 -2,2 -2,2 -2,2 -1,2 -1,2 -1,3 -1,3 -1,3 -1,3 -1,3 -1,3 v 3 3 3 4 h -21 v -4 -4 -4 l 1,-4 1,-4 1,-4 1,-4 1,-4 1,-4 2,-4 2,-3 2,-3 2,-3 2,-3 2,-3 3,-3 3,-3 3,-3 3,-2 3,-2 3,-2 4,-2 4,-2 4,-2 4,-1 4,-1 4,-1 4,-1 4,-1 5,-1 h 5 5 1 z m -1,0 v 0 0 h -1 z"
   inkscape:connector-curvature="0"
   style="fill:#212020;fill-rule:nonzero" />
    </g>
    <g
   id="g72">
     <path
   class="fil3"
   d="m 2914,3422 c -114,-81 -267,-126 -409,-92 -189,44 -169,166 -419,196 -4,-61 -5,-131 -9,-191 186,-10 196,-114 374,-155 221,-42 348,18 463,82 115,-64 241,-125 463,-82 178,41 188,145 374,155 -4,61 -5,131 -9,191 -250,-30 -230,-151 -419,-196 -142,-33 -295,11 -409,92 z"
   id="path68"
   inkscape:connector-curvature="0"
   style="fill:#fefefe" />
     <path
   id="path70"
   class="fil4"
   d="m 2508,3340 -5,-20 v 0 l 14,-3 14,-3 14,-2 14,-2 14,-1 14,-1 h 14 14 14 l 14,1 14,1 14,2 14,2 14,2 14,3 13,3 13,3 13,4 13,4 13,4 13,5 13,5 13,5 13,6 12,6 12,6 12,6 12,7 12,7 11,7 11,7 11,8 -12,17 -11,-7 -11,-7 -11,-7 -11,-7 -11,-6 -12,-6 -12,-6 -12,-6 -12,-5 -12,-5 -12,-5 -12,-5 -13,-4 -13,-4 -13,-4 -13,-3 -13,-3 -13,-3 -13,-2 -13,-2 -13,-2 -13,-1 -13,-1 h -13 -13 -13 l -13,1 -13,1 -13,2 -13,2 -13,2 -13,3 v 0 z m -431,186 21,-1 -12,-10 22,-3 21,-4 19,-4 18,-4 17,-5 16,-5 15,-5 14,-6 13,-6 12,-6 11,-7 11,-7 10,-7 10,-7 10,-7 9,-7 9,-7 9,-7 9,-7 9,-7 10,-7 10,-7 10,-7 11,-7 11,-7 12,-7 13,-6 13,-6 14,-6 15,-5 16,-5 18,-4 5,20 -17,4 -16,5 -14,5 -14,5 -13,6 -12,6 -11,6 -11,6 -10,7 -10,7 -9,7 -9,7 -9,7 -9,7 -9,7 -9,8 -10,8 -10,7 -10,7 -11,7 -11,7 -12,7 -13,7 -14,6 -14,6 -15,6 -16,5 -18,5 -19,5 -20,4 -21,4 -23,3 -12,-10 z m 12,10 -11,1 -1,-11 z m -11,-212 1,21 10,-11 v 6 6 6 6 6 6 6 6 6 6 6 6 6 6 6 6 6 6 6 6 6 6 6 6 6 6 6 6 6 6 6 6 l -21,1 v -6 -6 -6 -6 -6 -6 -6 -6 -6 -6 -6 -6 -6 -6 -6 -6 -6 -6 -6 -6 -6 -6 -6 -6 -6 -6 -6 -6 -6 -6 -6 -6 z m -10,11 -1,-11 11,-1 -10,11 z m 382,-166 4,21 v 0 l -16,4 -15,4 -14,5 -13,5 -13,5 -12,5 -11,5 -11,6 -10,6 -10,6 -10,6 -9,6 -9,6 -9,6 -9,6 -9,6 -9,6 -9,6 -9,6 -10,6 -10,6 -10,5 -11,5 -11,5 -12,4 -12,4 -13,4 -14,3 -15,3 -15,2 -16,2 -17,1 -1,-21 17,-1 16,-2 15,-2 14,-3 13,-3 12,-3 12,-4 11,-4 11,-4 10,-5 10,-5 9,-5 9,-5 9,-6 9,-6 9,-6 9,-6 9,-6 9,-6 9,-6 10,-6 10,-6 10,-6 11,-6 11,-6 12,-6 13,-6 13,-5 14,-5 15,-5 16,-4 17,-4 v 0 z m 0,0 z m 460,83 10,18 h -10 l -11,-6 -11,-6 -11,-6 -11,-6 -11,-6 -11,-6 -11,-5 -12,-5 -12,-5 -12,-5 -12,-5 -12,-4 -13,-4 -13,-4 -13,-4 -13,-3 -14,-3 -14,-3 -14,-2 -15,-2 -15,-2 -15,-1 -16,-1 h -16 -17 -17 l -18,1 -18,1 -19,2 -19,2 -20,3 -20,4 -4,-21 21,-4 20,-3 20,-3 19,-2 19,-1 18,-1 h 18 17 l 17,1 16,1 16,1 16,2 15,2 15,3 15,3 14,3 14,4 14,4 13,4 13,4 13,5 13,5 12,5 12,5 12,5 12,6 12,6 11,6 11,6 11,6 11,6 11,6 h -10 z m 10,18 -5,3 -5,-3 z m 460,-102 -5,21 v 0 l -20,-4 -20,-3 -19,-2 -19,-2 -18,-1 -18,-1 h -17 -17 -16 l -16,1 -15,1 -15,2 -15,2 -14,2 -14,3 -14,3 -13,3 -13,4 -13,4 -13,4 -12,4 -12,5 -12,5 -12,5 -12,5 -11,5 -11,6 -11,6 -11,6 -11,6 -11,6 -11,6 -10,-18 11,-6 11,-6 11,-6 11,-6 11,-6 12,-6 12,-6 12,-5 12,-5 12,-5 13,-5 13,-5 13,-4 13,-4 14,-4 14,-4 14,-3 15,-3 15,-3 15,-2 16,-2 16,-1 16,-1 17,-1 h 17 18 l 18,1 19,1 19,2 20,3 20,3 21,4 v 0 z m 0,0 z m 382,166 -21,-1 10,11 -17,-1 -16,-2 -15,-2 -15,-3 -14,-3 -13,-4 -12,-4 -12,-4 -11,-5 -11,-5 -10,-5 -10,-6 -10,-6 -9,-6 -9,-6 -9,-6 -9,-6 -9,-6 -9,-6 -9,-6 -9,-6 -10,-6 -10,-6 -10,-6 -11,-6 -11,-5 -12,-5 -13,-5 -13,-5 -14,-5 -15,-4 -16,-4 5,-21 17,4 16,4 15,5 14,5 13,5 13,6 12,6 11,6 11,6 10,6 10,6 10,6 9,6 9,6 9,6 9,6 9,6 9,6 9,6 9,5 9,5 10,5 10,5 11,4 11,4 12,4 12,3 13,3 14,3 15,2 16,2 17,1 10,11 z m -10,-11 11,1 -1,11 -10,-11 z m -11,212 3,-21 -12,10 v -6 -6 -6 -6 -6 -6 -6 -6 -6 -6 -6 -6 -6 -6 -6 -6 -6 -6 -6 -6 -6 -6 -6 -6 -6 -6 -6 -6 -6 -6 -6 -6 l 21,1 v 6 6 6 6 6 6 6 6 6 6 6 6 6 6 6 6 6 6 6 6 6 6 6 6 6 6 6 6 6 6 6 6 z m 12,-10 -1,11 -11,-1 z m -431,-186 5,-20 v 0 l 18,4 16,5 15,5 14,6 13,6 13,6 12,7 11,7 11,7 10,7 10,7 10,7 9,7 9,7 9,7 9,7 9,7 10,7 10,7 10,7 11,7 11,7 12,6 13,6 14,6 15,5 16,5 17,5 18,4 19,4 21,4 22,3 -3,21 -23,-3 -21,-4 -20,-4 -19,-5 -18,-5 -16,-5 -15,-6 -14,-6 -14,-6 -13,-7 -12,-7 -11,-7 -11,-7 -10,-7 -10,-7 -10,-8 -9,-8 -9,-7 -9,-7 -9,-7 -9,-7 -9,-7 -10,-7 -10,-7 -11,-6 -11,-6 -12,-6 -13,-6 -14,-5 -14,-5 -16,-5 -17,-4 v 0 z m -413,91 12,-17 h -12 l 11,-8 11,-7 11,-7 12,-7 12,-7 12,-6 12,-6 12,-6 13,-6 13,-5 13,-5 13,-5 13,-4 13,-4 13,-4 13,-3 13,-3 14,-3 14,-2 14,-2 14,-2 14,-1 14,-1 h 14 14 14 l 14,1 14,1 14,2 14,2 14,3 14,3 -5,20 -13,-3 -13,-2 -13,-2 -13,-2 -13,-1 -13,-1 h -13 -13 -13 l -13,1 -13,1 -13,2 -13,2 -13,2 -13,3 -13,3 -13,3 -13,4 -13,4 -13,4 -12,5 -12,5 -12,5 -12,5 -12,6 -12,6 -12,6 -11,6 -11,7 -11,7 -11,7 -11,7 h -12 z m 12,0 -6,4 -6,-4 z"
   inkscape:connector-curvature="0"
   style="fill:#212020;fill-rule:nonzero" />
    </g>
    <g
   id="g78">
     <path
   class="fil3"
   d="m 3742,3524 c 24,34 43,54 67,90 -100,-7 -167,7 -234,-36 -98,-46 -173,-120 -278,-146 -147,-36 -263,17 -382,100 -119,-83 -236,-136 -382,-100 -105,26 -180,100 -278,146 -67,44 -134,29 -234,36 24,-35 43,-56 67,-90 250,-28 230,-150 419,-194 142,-33 295,11 409,92 114,-81 267,-126 409,-92 189,44 169,166 419,194 z"
   id="path74"
   inkscape:connector-curvature="0"
   style="fill:#fefefe" />
     <path
   id="path76"
   class="fil4"
   d="m 3808,3624 1,-21 -9,16 -2,-3 -2,-3 -2,-3 -2,-3 -2,-3 -2,-3 -2,-3 -2,-3 -2,-3 -2,-3 -2,-3 -2,-3 -2,-3 -2,-3 -2,-3 -2,-3 -2,-3 -2,-3 -2,-3 -2,-3 -2,-3 -2,-3 -2,-3 -2,-3 -2,-3 -2,-3 -2,-3 -2,-3 -2,-3 -2,-3 -2,-3 -2,-3 17,-12 2,3 2,3 2,3 2,3 2,3 2,3 2,3 2,3 2,3 2,3 2,3 2,3 2,3 2,3 2,3 2,3 2,3 2,3 2,3 2,3 2,3 2,3 2,3 2,3 2,3 2,3 2,3 2,3 2,3 2,3 2,3 2,3 -9,16 z m 9,-16 12,18 -22,-2 9,-16 z m -247,-21 9,-19 1,1 6,4 6,3 6,3 6,3 6,3 6,2 6,2 6,2 6,2 6,1 6,1 6,1 6,1 7,1 7,1 7,1 h 7 7 7 7 7 8 8 8 8 8 8 9 9 9 l 9,1 9,1 -1,21 -9,-1 h -9 -9 -9 -9 -8 -8 -8 -8 -8 -8 -8 -8 -7 -7 -7 l -7,-1 -7,-1 -7,-1 -7,-1 -7,-1 -7,-1 -7,-2 -7,-2 -7,-2 -7,-2 -7,-3 -7,-3 -7,-3 -7,-3 -7,-4 -7,-4 1,1 z m 9,-19 h 1 1 l -1,-1 z m -285,-126 5,-20 v 0 l 10,3 10,3 10,3 10,3 9,4 9,4 9,4 9,4 9,4 9,5 9,5 9,5 9,5 8,5 8,5 8,5 8,5 8,5 8,5 8,5 8,5 8,5 8,5 8,5 8,5 8,5 8,5 9,5 9,5 9,5 9,4 9,4 -9,19 -9,-4 -9,-5 -9,-5 -9,-5 -9,-5 -9,-5 -9,-5 -9,-5 -8,-5 -8,-5 -8,-5 -8,-5 -8,-5 -8,-5 -8,-5 -8,-5 -8,-5 -8,-5 -8,-5 -8,-5 -8,-5 -8,-5 -8,-4 -9,-4 -9,-4 -9,-4 -9,-4 -9,-3 -9,-3 -9,-3 -9,-3 -9,-2 v 0 z m -386,99 12,-17 h -12 l 11,-8 11,-8 11,-7 11,-7 11,-7 11,-7 11,-6 11,-6 11,-6 11,-6 12,-5 12,-5 12,-5 12,-5 12,-4 12,-4 12,-4 12,-3 12,-3 12,-2 12,-2 13,-2 13,-1 13,-1 h 13 13 l 13,1 13,1 14,2 14,2 14,3 14,3 -5,20 -13,-3 -13,-3 -13,-2 -13,-2 -13,-1 -12,-1 h -12 -12 l -12,1 -12,1 -12,1 -12,2 -12,2 -12,3 -12,3 -11,3 -11,4 -11,4 -11,4 -11,5 -11,5 -11,5 -11,6 -11,6 -11,6 -11,6 -11,7 -11,7 -11,7 -11,7 -11,7 -11,8 h -12 z m 12,0 -6,4 -6,-4 z m -386,-99 -5,-20 v 0 l 14,-3 14,-3 14,-2 14,-2 13,-1 13,-1 h 13 13 l 13,1 13,1 13,2 12,2 12,2 12,3 12,3 12,4 12,4 12,4 12,5 12,5 12,5 12,5 11,6 11,6 11,6 11,6 11,7 11,7 11,7 11,7 11,8 11,8 -12,17 -11,-8 -11,-7 -11,-7 -11,-7 -11,-7 -11,-7 -11,-6 -11,-6 -11,-6 -11,-6 -11,-5 -11,-5 -11,-5 -11,-4 -11,-4 -11,-4 -11,-3 -12,-3 -12,-3 -12,-2 -12,-2 -12,-1 -12,-1 -12,-1 h -12 -12 l -12,1 -13,1 -13,2 -13,2 -13,3 -13,3 v 0 z m -275,145 -11,-18 1,-1 9,-4 9,-4 9,-5 9,-5 9,-5 8,-5 8,-5 8,-5 8,-5 8,-5 8,-5 8,-5 8,-5 8,-5 8,-5 8,-5 8,-5 8,-5 8,-5 9,-5 9,-5 9,-5 9,-5 9,-4 9,-4 9,-4 9,-4 9,-4 10,-3 10,-3 10,-3 10,-3 5,20 -9,2 -9,3 -9,3 -9,3 -9,3 -9,4 -9,4 -9,4 -9,4 -8,4 -8,5 -8,5 -8,5 -8,5 -8,5 -8,5 -8,5 -8,5 -8,5 -8,5 -8,5 -8,5 -8,5 -8,5 -9,5 -9,5 -9,5 -9,5 -9,5 -9,5 -9,5 -9,4 1,-1 z m -11,-18 h 1 1 l -1,1 z m -237,39 17,12 -9,-16 9,-1 9,-1 h 9 9 9 8 8 8 8 8 8 7 7 7 7 7 l 7,-1 7,-1 7,-1 6,-1 6,-1 6,-1 6,-1 6,-2 6,-2 6,-2 6,-2 6,-3 6,-3 6,-3 6,-3 6,-4 11,18 -7,4 -7,4 -7,3 -7,3 -7,3 -7,3 -7,2 -7,2 -7,2 -7,2 -7,1 -7,1 -7,1 -7,1 -7,1 -7,1 h -7 -7 -7 -8 -8 -8 -8 -8 -8 -8 -8 -9 -9 -9 -9 l -9,1 -9,-16 z m 9,16 -22,2 12,-18 9,16 z m 65,-111 2,21 7,-4 -2,3 -2,3 -2,3 -2,3 -2,3 -2,3 -2,3 -2,3 -2,3 -2,3 -2,3 -2,3 -2,3 -2,3 -2,3 -2,3 -2,3 -2,3 -2,3 -2,3 -2,3 -2,3 -2,3 -2,3 -2,3 -2,3 -2,3 -2,3 -2,3 -2,3 -2,3 -2,3 -17,-12 2,-3 2,-3 2,-3 2,-3 2,-3 2,-3 2,-3 2,-3 2,-3 2,-3 2,-3 2,-3 2,-3 2,-3 2,-3 2,-3 2,-3 2,-3 2,-3 2,-3 2,-3 2,-3 2,-3 2,-3 2,-3 2,-3 2,-3 2,-3 2,-3 2,-3 2,-3 2,-3 7,-4 z m -7,4 3,-4 5,-1 -7,4 z m 425,-198 5,20 v 0 l -17,4 -16,5 -14,5 -14,5 -13,6 -12,6 -11,6 -11,6 -10,7 -10,7 -9,7 -9,7 -9,7 -9,7 -9,7 -9,7 -10,7 -10,7 -10,7 -11,7 -11,7 -12,7 -13,7 -14,6 -14,6 -15,6 -16,5 -18,5 -19,4 -20,4 -22,4 -23,3 -2,-21 22,-3 21,-3 19,-4 18,-4 17,-5 16,-5 15,-5 14,-6 13,-6 12,-6 11,-6 11,-7 10,-7 10,-7 10,-7 9,-7 9,-7 9,-7 9,-7 9,-7 10,-7 10,-7 10,-7 11,-7 11,-7 12,-7 13,-6 13,-6 14,-6 15,-5 16,-5 z m 405,94 12,17 h -12 l -11,-7 -11,-7 -11,-7 -11,-7 -11,-6 -12,-6 -12,-6 -12,-6 -12,-5 -12,-5 -12,-5 -12,-5 -13,-4 -13,-4 -13,-4 -13,-3 -13,-3 -13,-3 -13,-2 -13,-2 -13,-2 -13,-1 -13,-1 h -13 -13 -13 l -13,1 -13,1 -13,2 -13,2 -13,2 -13,3 -5,-20 14,-3 14,-3 14,-2 14,-2 14,-1 14,-1 h 14 14 14 l 14,1 14,1 14,2 14,2 14,2 14,3 13,3 13,3 13,4 13,4 13,4 13,5 13,5 13,5 13,6 12,6 12,6 12,6 12,7 12,7 11,7 11,7 11,8 h -12 z m 12,17 -6,4 -6,-4 z m 405,-111 -5,20 v 0 l -13,-3 -13,-2 -13,-2 -13,-2 -13,-1 -13,-1 h -13 -13 -13 l -13,1 -13,1 -13,2 -13,2 -13,2 -13,3 -13,3 -13,3 -13,4 -13,4 -13,4 -12,5 -12,5 -12,5 -12,5 -12,6 -12,6 -12,6 -11,6 -11,7 -11,7 -11,7 -11,7 -12,-17 11,-8 11,-7 11,-7 12,-7 12,-7 12,-6 12,-6 12,-6 13,-6 13,-5 13,-5 13,-5 13,-4 13,-4 13,-4 13,-3 13,-3 14,-3 14,-2 14,-2 14,-2 14,-1 14,-1 h 14 14 14 l 14,1 14,1 14,2 14,2 14,3 14,3 v 0 z m 425,198 -17,12 7,4 -23,-3 -22,-4 -20,-4 -19,-4 -18,-5 -16,-5 -15,-6 -14,-6 -14,-6 -13,-7 -12,-7 -11,-7 -11,-7 -10,-7 -10,-7 -10,-7 -9,-7 -9,-7 -9,-7 -9,-7 -9,-7 -9,-7 -10,-7 -10,-7 -11,-6 -11,-6 -12,-6 -13,-6 -14,-5 -14,-5 -16,-5 -17,-4 5,-20 18,4 16,5 15,5 14,6 13,6 13,6 12,7 11,7 11,7 10,7 10,7 10,7 9,7 9,7 9,7 9,7 9,7 10,7 10,7 10,7 11,7 11,6 12,6 13,6 14,6 15,5 16,5 17,5 18,4 19,4 21,3 22,3 7,4 z m -7,-4 5,1 3,4 -7,-4 z"
   inkscape:connector-curvature="0"
   style="fill:#212020;fill-rule:nonzero" />
    </g>
    <g
   id="g82">
     <polygon
   class="fil4"
   points="3036,1592 3015,1591 3034,1006 3055,1006 "
   id="polygon80"
   style="fill:#212020;fill-rule:nonzero" />
    </g>
    <g
   id="g86">
     <polygon
   class="fil4"
   points="2794,1006 2813,1591 2792,1592 2773,1006 "
   id="polygon84"
   style="fill:#212020;fill-rule:nonzero" />
    </g>
    <g
   id="g90">
     <polygon
   class="fil4"
   points="3168,1707 3147,1703 3270,1108 3291,1112 "
   id="polygon88"
   style="fill:#212020;fill-rule:nonzero" />
    </g>
    <g
   id="g94">
     <polygon
   class="fil4"
   points="2558,1108 2681,1703 2660,1707 2537,1112 "
   id="polygon92"
   style="fill:#212020;fill-rule:nonzero" />
    </g>
    <g
   id="g98">
     <path
   class="fil4"
   d="m 3055,2210 -21,1 v 0 l -1,-10 -1,-11 -1,-11 -1,-11 -1,-11 -1,-11 -1,-12 -1,-12 -1,-12 -1,-12 -1,-12 v -12 -12 -12 -12 -12 -12 -12 -12 -12 -12 l -1,-12 -1,-12 -1,-12 -1,-12 -1,-12 -1,-11 -1,-11 -1,-11 -1,-11 -1,-11 -1,-10 21,-2 1,10 1,11 1,11 1,11 1,11 1,11 1,12 1,12 1,12 1,12 1,12 v 12 12 12 12 12 12 12 12 12 12 l 1,12 1,12 1,12 1,12 1,12 1,11 1,11 1,11 1,11 1,11 1,10 v 0 z m 0,0 z m 244,307 -18,11 -8,-11 -8,-11 -8,-11 -9,-10 -9,-10 -9,-10 -10,-10 -10,-9 -10,-9 -10,-9 -10,-9 -10,-9 -10,-9 -10,-9 -10,-9 -10,-9 -9,-9 -9,-9 -9,-9 -9,-9 -8,-9 -8,-9 -7,-10 -7,-10 -6,-10 -6,-10 -5,-11 -4,-11 -4,-11 -3,-12 -2,-12 -1,-12 21,-1 1,11 2,10 2,10 3,10 4,10 4,9 5,9 6,9 6,9 7,9 7,9 8,9 8,9 9,9 9,9 9,9 10,9 10,9 10,9 10,9 10,9 10,9 10,9 10,10 10,10 10,10 10,10 9,11 9,11 9,11 9,12 8,12 z"
   id="path96"
   inkscape:connector-curvature="0"
   style="fill:#212020;fill-rule:nonzero" />
    </g>
    <g
   id="g102">
     <path
   class="fil4"
   d="m 2773,2210 v 0 l 1,-10 1,-11 1,-11 1,-11 1,-11 1,-11 1,-12 1,-12 1,-12 1,-12 1,-12 v -12 -12 -12 -12 -12 -12 -12 -12 -12 -12 l 1,-12 1,-12 1,-12 1,-12 1,-12 1,-11 1,-11 1,-11 1,-11 1,-11 1,-10 21,2 -1,10 -1,11 -1,11 -1,11 -1,11 -1,11 -1,12 -1,12 -1,12 -1,12 -1,12 v 12 12 12 12 12 12 12 12 12 12 l -1,12 -1,12 -1,12 -1,12 -1,12 -1,11 -1,11 -1,11 -1,11 -1,11 -1,10 v 0 l -21,-1 z m 0,0 z m -244,306 8,-12 9,-12 9,-11 9,-11 9,-11 10,-10 10,-10 10,-10 10,-10 10,-9 10,-9 10,-9 10,-9 10,-9 10,-9 10,-9 9,-9 9,-9 9,-9 8,-9 8,-9 7,-9 7,-9 6,-9 6,-9 5,-9 4,-9 4,-10 3,-10 2,-10 2,-10 1,-11 21,1 -1,12 -2,12 -3,12 -4,11 -4,11 -5,11 -6,10 -6,10 -7,10 -7,10 -8,9 -8,9 -9,9 -9,9 -9,9 -9,9 -10,9 -10,9 -10,9 -10,9 -10,9 -10,9 -10,9 -10,9 -10,9 -10,10 -9,10 -9,10 -9,10 -8,11 -8,11 -8,11 -18,-11 z"
   id="path100"
   inkscape:connector-curvature="0"
   style="fill:#212020;fill-rule:nonzero" />
    </g>
    <g
   id="g106">
     <polygon
   class="fil4"
   points="3071,2091 3078,2095 3085,2099 3091,2103 3098,2108 3104,2112 3110,2116 3117,2121 3123,2125 3129,2129 3135,2134 3140,2138 3146,2142 3152,2147 3157,2152 3162,2156 3168,2161 3173,2166 3178,2170 3183,2175 3188,2180 3192,2186 3197,2191 3201,2196 3206,2201 3210,2207 3214,2213 3218,2218 3201,2230 3197,2225 3193,2220 3189,2214 3185,2209 3181,2204 3177,2200 3172,2195 3168,2190 3163,2186 3158,2181 3153,2176 3149,2172 3143,2168 3138,2163 3133,2159 3127,2155 3122,2150 3116,2146 3110,2142 3105,2138 3099,2134 3092,2129 3086,2125 3080,2121 3073,2117 3067,2113 3060,2108 3053,2104 3046,2100 3039,2096 3032,2091 3025,2087 3035,2069 3043,2073 3050,2078 3057,2082 3064,2086 "
   id="polygon104"
   style="fill:#212020;fill-rule:nonzero" />
    </g>
    <g
   id="g110">
     <polygon
   class="fil4"
   points="2761,2113 2755,2117 2748,2121 2742,2125 2736,2129 2730,2134 2724,2138 2718,2142 2712,2146 2706,2150 2701,2155 2695,2159 2690,2163 2685,2168 2680,2172 2675,2176 2670,2181 2665,2186 2660,2190 2656,2195 2651,2200 2647,2204 2643,2209 2639,2214 2635,2220 2631,2225 2627,2230 2610,2218 2614,2213 2618,2207 2622,2201 2627,2196 2631,2191 2636,2186 2641,2180 2645,2175 2650,2170 2655,2166 2660,2161 2666,2156 2671,2152 2677,2147 2682,2142 2688,2138 2694,2134 2699,2129 2705,2125 2711,2121 2718,2116 2724,2112 2730,2108 2737,2103 2743,2099 2750,2095 2757,2091 2764,2086 2771,2082 2778,2078 2785,2073 2793,2069 2803,2087 2796,2091 2789,2096 2782,2100 2775,2104 2768,2108 "
   id="polygon108"
   style="fill:#212020;fill-rule:nonzero" />
    </g>
    <g
   id="g114">
     <polygon
   class="fil4"
   points="2911,2214 2910,2233 2910,2253 2910,2272 2911,2292 2913,2312 2915,2332 2918,2351 2921,2371 2925,2391 2928,2411 2932,2430 2935,2449 2938,2469 2941,2488 2944,2507 2946,2525 2947,2544 2947,2562 2947,2580 2945,2597 2943,2614 2939,2631 2934,2648 2927,2664 2918,2679 2908,2694 2896,2708 2881,2694 2891,2681 2900,2668 2908,2655 2914,2640 2919,2626 2922,2610 2924,2595 2926,2578 2926,2562 2926,2545 2925,2527 2923,2509 2920,2491 2918,2472 2914,2453 2911,2434 2908,2414 2904,2395 2901,2375 2897,2355 2895,2334 2892,2314 2890,2294 2889,2273 2888,2253 2889,2232 2890,2212 2893,2191 2897,2171 2902,2150 2908,2130 2917,2110 2936,2119 2928,2138 2922,2156 2917,2175 2914,2194 "
   id="polygon112"
   style="fill:#212020;fill-rule:nonzero" />
    </g>
    <g
   id="g118">
     <path
   class="fil4"
   d="m 2981,2900 -21,-3 9,12 h -2 -2 -2 -2 -2 -2 -2 -2 -2 -2 -2 -2 -2 -2 -2 -2 -2 -2 -2 -2 -2 -2 -2 -2 -2 -2 -2 -2 -2 -2 -2 -2 l 2,-21 h 2 2 2 2 2 2 2 2 2 2 2 2 2 2 2 2 2 2 2 2 2 2 2 2 2 2 2 2 2 2 2 2 l 9,12 z m -9,-12 11,1 -2,11 z m 10,127 -8,20 -6,-7 -1,-4 -1,-4 -1,-4 -1,-4 -1,-4 -1,-4 -1,-4 -1,-4 -1,-4 -1,-4 -1,-4 v -4 -4 -4 -4 -4 -4 -4 -4 -4 -4 -4 -4 -4 -4 -4 -4 -4 -4 -4 -4 l 1,-4 21,3 -1,4 v 4 4 4 4 4 4 4 4 4 4 4 4 4 4 4 4 4 4 4 4 4 l 1,4 1,4 1,4 1,4 1,4 1,4 1,4 1,4 1,4 1,4 -6,-7 z m -8,20 -5,-2 -1,-5 z m 52,13 -16,-14 4,17 -1,-1 -1,-1 -1,-1 h -1 l -1,-1 -1,-1 -1,-1 -1,-1 -1,-1 -1,-1 -1,-1 -1,-1 -1,-1 -1,-1 -1,-1 -1,-1 -1,-1 -1,-1 -1,-1 -1,-1 h -1 l -1,-1 -1,-1 -1,-1 -1,-1 -1,-1 -1,-1 -1,-1 -1,-1 -1,-1 -1,-1 -1,-1 8,-20 1,1 1,1 1,1 1,1 1,1 1,1 1,1 1,1 1,1 h 1 l 1,1 1,1 1,1 1,1 1,1 1,1 1,1 1,1 h 1 l 1,1 1,1 1,1 1,1 1,1 1,1 1,1 1,1 1,1 1,1 1,1 1,1 1,1 z m -4,-17 14,6 -10,11 z m -39,81 -16,-14 v 0 l 1,-2 1,-2 1,-2 1,-2 1,-2 1,-2 1,-2 1,-2 1,-2 1,-2 1,-2 1,-2 1,-2 1,-2 1,-2 1,-2 1,-2 1,-2 1,-2 1,-2 1,-2 1,-2 1,-2 1,-2 1,-2 1,-2 2,-2 2,-2 2,-2 2,-2 2,-2 2,-2 16,14 -1,2 -1,2 -1,2 -1,2 -1,2 -1,2 -1,2 -1,2 -1,2 -1,2 -1,2 -1,2 -1,2 -1,2 -1,2 -1,2 -1,2 -1,2 -1,2 -1,2 -1,2 -1,2 -1,2 -1,2 -1,2 -1,2 -2,2 -2,2 -2,2 -2,2 -2,2 z m -76,52 16,-13 h -16 l 2,-2 2,-2 2,-2 2,-2 2,-2 2,-2 2,-2 2,-2 2,-2 2,-2 2,-2 2,-2 2,-2 2,-2 2,-2 2,-2 2,-2 2,-2 2,-2 2,-2 2,-2 2,-2 2,-2 2,-2 2,-2 2,-2 2,-2 2,-2 2,-2 2,-2 2,-2 2,-2 16,14 -2,2 -2,2 -2,2 -2,2 -2,2 -2,2 -2,2 -2,2 -2,2 -2,2 -2,2 -2,2 -2,2 -2,2 -2,2 -2,2 -2,2 -2,2 -2,2 -2,2 -2,2 -2,2 -2,2 -2,2 -2,2 -2,2 -2,2 -2,2 -2,2 -1,2 -1,2 -1,2 h -16 z m 16,0 -8,10 -8,-10 z m -76,-52 16,-14 v 0 l 1,2 2,2 2,2 2,2 2,2 2,2 2,2 2,2 2,2 2,2 2,2 2,2 2,2 2,2 2,2 2,2 2,2 2,2 2,2 2,2 2,2 2,2 2,2 2,2 2,2 2,2 2,2 2,2 2,2 2,2 2,2 2,2 -16,13 -1,-2 -1,-2 -1,-2 -2,-2 -2,-2 -2,-2 -2,-2 -2,-2 -2,-2 -2,-2 -2,-2 -2,-2 -2,-2 -2,-2 -2,-2 -2,-2 -2,-2 -2,-2 -2,-2 -2,-2 -2,-2 -2,-2 -2,-2 -2,-2 -2,-2 -2,-2 -2,-2 -2,-2 -2,-2 -2,-2 -2,-2 -2,-2 v 0 z m -39,-81 8,20 4,-17 2,2 2,2 2,2 2,2 2,2 2,2 1,2 1,2 1,2 1,2 1,2 1,2 1,2 1,2 1,2 1,2 1,2 1,2 1,2 1,2 1,2 1,2 1,2 1,2 1,2 1,2 1,2 1,2 1,2 1,2 1,2 1,2 -16,14 -2,-2 -2,-2 -2,-2 -2,-2 -2,-2 -2,-2 -1,-2 -1,-2 -1,-2 -1,-2 -1,-2 -1,-2 -1,-2 -1,-2 -1,-2 -1,-2 -1,-2 -1,-2 -1,-2 -1,-2 -1,-2 -1,-2 -1,-2 -1,-2 -1,-2 -1,-2 -1,-2 -1,-2 -1,-2 -1,-2 -1,-2 -1,-2 z m -4,17 -10,-11 14,-6 z m 38,-26 20,5 -6,7 -1,1 -1,1 -1,1 -1,1 -1,1 -1,1 -1,1 -1,1 -1,1 -1,1 h -1 l -1,1 -1,1 -1,1 -1,1 -1,1 -1,1 -1,1 h -1 l -1,1 -1,1 -1,1 -1,1 -1,1 h -1 l -1,1 -1,1 -1,1 -1,1 -1,1 -1,1 -1,1 -8,-20 1,-1 1,-1 1,-1 h 1 l 1,-1 1,-1 1,-1 1,-1 1,-1 h 1 l 1,-1 1,-1 1,-1 1,-1 1,-1 1,-1 1,-1 1,-1 1,-1 1,-1 1,-1 1,-1 1,-1 1,-1 1,-1 1,-1 1,-1 1,-1 1,-1 1,-1 1,-1 1,-1 -6,7 z m 20,5 -1,5 -5,2 z m -4,-139 2,21 9,-12 1,4 v 4 4 4 4 4 4 4 4 4 4 4 4 4 4 4 4 4 4 4 4 l -1,4 -1,4 -1,4 -1,4 -1,4 -1,4 -1,4 -1,4 -1,4 -1,4 -1,4 -20,-5 1,-4 1,-4 1,-4 1,-4 1,-4 1,-4 1,-4 1,-4 1,-4 1,-4 v -4 -4 -4 -4 -4 -4 -4 -4 -4 -4 -4 -4 -4 -4 -4 -4 -4 -4 -4 -4 -4 l -1,-4 9,-12 z m -9,12 -2,-11 11,-1 z m 68,-20 -2,21 h 2 -2 -2 -2 -2 -2 -2 -2 -2 -2 -2 -2 -2 -2 -2 -2 -2 -2 -2 -2 -2 -2 -2 -2 -2 -2 -2 -2 -2 -2 -2 -2 -2 l -2,-21 h 2 2 2 2 2 2 2 2 2 2 2 2 2 2 2 2 2 2 2 2 2 2 2 2 2 2 2 2 2 2 2 2 z m -2,0 h 1 1 z"
   id="path116"
   inkscape:connector-curvature="0"
   style="fill:#212020;fill-rule:nonzero" />
    </g>
    <path
   class="fil1"
   d="m 1744,1593 -177,-86 -26,54 -36,-18 71,-145 36,18 -26,54 177,86 -18,37 z m -143,-248 23,-34 106,72 c 17,11 28,18 34,21 9,4 18,5 26,3 9,-2 16,-8 22,-17 6,-10 9,-18 8,-26 -1,-8 -5,-15 -11,-20 -6,-6 -17,-13 -32,-24 l -108,-73 23,-34 103,69 c 24,16 40,28 48,36 8,8 14,17 18,27 3,9 4,20 3,31 -2,11 -7,23 -16,36 -11,16 -21,27 -31,32 -10,5 -20,8 -30,8 -10,0 -20,-2 -28,-5 -13,-5 -30,-15 -52,-30 l -105,-71 z m 340,-72 -146,-132 -40,45 -30,-27 108,-120 30,27 -40,45 146,132 -27,30 z m 164,-169 -181,-160 33,-25 122,111 -68,-152 39,-29 128,111 -75,-151 33,-25 103,219 -35,26 -139,-117 74,165 -35,27 z m 88,-350 37,-18 56,115 c 9,18 15,30 19,35 6,8 13,13 21,15 9,2 18,1 28,-4 10,-5 17,-11 20,-19 3,-8 3,-15 1,-23 -2,-8 -8,-20 -16,-37 l -57,-118 37,-18 54,112 c 12,26 20,44 23,56 3,12 4,22 2,32 -2,10 -6,19 -13,28 -7,9 -17,16 -32,24 -17,8 -32,13 -43,12 -11,0 -21,-3 -30,-8 -9,-5 -16,-11 -22,-19 -8,-11 -18,-28 -30,-52 z m 290,126 -69,-226 82,-25 c 21,-6 36,-9 47,-8 11,1 20,6 29,15 9,9 15,20 19,33 5,17 5,32 0,46 -5,14 -16,25 -32,33 10,3 19,7 27,13 8,5 19,15 33,30 l 37,37 -47,14 -43,-41 c -15,-15 -26,-23 -31,-27 -5,-3 -10,-5 -15,-6 -5,0 -11,1 -20,3 l -8,2 29,94 -39,12 z m -1,-143 29,-9 c 19,-6 30,-10 34,-13 4,-3 7,-8 8,-13 1,-5 1,-11 -1,-18 -2,-8 -6,-13 -11,-17 -5,-4 -11,-5 -17,-4 -3,0 -13,3 -29,8 l -30,9 18,57 z m 199,89 -41,-233 40,-7 41,233 z m 156,-23 4,-237 41,1 -2,93 80,1 2,-93 41,1 -4,237 -41,-1 2,-103 -80,-1 -2,103 z m 384,38 -44,-8 -8,-56 -80,-14 -26,50 -43,-8 119,-219 43,8 z m -58,-105 -12,-91 -42,82 54,10 z m 79,113 81,-222 37,14 24,177 54,-148 36,13 -81,222 -39,-14 -24,-173 -53,145 -36,-13 z m 306,-135 65,36 c 15,8 25,16 31,23 8,9 14,21 16,34 2,13 2,28 -2,43 -4,15 -11,33 -21,52 -9,17 -19,31 -30,41 -13,13 -26,21 -39,26 -10,4 -22,5 -34,3 -9,-1 -21,-6 -34,-13 l -67,-37 115,-207 z m 16,55 -76,137 27,15 c 10,6 18,9 23,10 7,2 13,1 19,-1 6,-2 13,-7 20,-15 8,-8 16,-20 25,-36 9,-16 14,-29 17,-39 2,-10 3,-18 1,-26 -2,-7 -5,-14 -11,-19 -4,-4 -14,-10 -28,-18 l -16,-9 z m 189,367 -36,-27 18,-54 -65,-49 -46,33 -35,-26 205,-141 35,26 -78,238 z m -4,-120 31,-87 -75,54 z m 34,160 72,-69 47,-148 33,34 -34,99 100,-31 33,34 -150,42 -71,69 -28,-29 z m 191,220 -28,-35 31,-48 -51,-63 -52,21 -27,-34 233,-88 27,34 -133,212 z m 25,-117 51,-77 -85,34 35,43 z m -15,140 209,-111 19,35 -101,147 139,-74 18,34 -209,111 -19,-36 98,-144 -136,72 z m 92,178 218,-92 16,38 -218,92 z"
   id="path120"
   inkscape:connector-curvature="0"
   style="fill:#332c2b" />
   </g>
</svg>